<?xml version="1.0" encoding="UTF-8" standalone="no"?>
<!-- Generator: Adobe Illustrator 18.0.0, SVG Export Plug-In . SVG Version: 6.00 Build 0)  -->

<svg
   xmlns:dc="http://purl.org/dc/elements/1.1/"
   xmlns:cc="http://creativecommons.org/ns#"
   xmlns:rdf="http://www.w3.org/1999/02/22-rdf-syntax-ns#"
   xmlns:svg="http://www.w3.org/2000/svg"
   xmlns="http://www.w3.org/2000/svg"
   xmlns:xlink="http://www.w3.org/1999/xlink"
   xmlns:sodipodi="http://sodipodi.sourceforge.net/DTD/sodipodi-0.dtd"
   xmlns:inkscape="http://www.inkscape.org/namespaces/inkscape"
   version="1.1"
   id="svg3515"
   inkscape:version="0.92.2 5c3e80d, 2017-08-06"
   sodipodi:docname="object_relationships_detailed.svg"
   x="0px"
   y="0px"
   viewBox="0 30 620 660"
   enable-background="new 0 0 600 660"
   xml:space="preserve"><metadata
     id="metadata4533"><rdf:RDF><cc:Work
         rdf:about=""><dc:format>image/svg+xml</dc:format><dc:type
           rdf:resource="http://purl.org/dc/dcmitype/StillImage" /></cc:Work></rdf:RDF></metadata><defs
     id="defs4531" /><path
     id="path3502_2_"
     inkscape:connector-curvature="0"
     d="m 335.24089,504.59513 v 0 c 0,-1.9 1.6,-3.5 3.5,-3.5 h 96.1 c 0.9,0 1.8,0.3 2.4,1 0.6,0.6 1,1.5 1,2.4 v 13.8 c 0,1.9 -1.6,3.5 -3.5,3.5 h -96.1 v 0 c -1.9,0 -3.5,-1.6 -3.5,-3.5 v -13.7 z"
     style="fill:#b6d7a8;stroke:#000000" /><sodipodi:namedview
     inkscape:window-y="1"
     inkscape:window-width="1920"
     inkscape:window-x="0"
     inkscape:snap-bbox="true"
     inkscape:snap-others="false"
     inkscape:current-layer="svg_29"
     inkscape:pageshadow="2"
     inkscape:snap-bbox-midpoints="true"
     inkscape:window-height="1151"
     inkscape:window-maximized="1"
     inkscape:pageopacity="0"
     inkscape:bbox-nodes="true"
     inkscape:bbox-paths="true"
     inkscape:snap-nodes="false"
     inkscape:snap-bbox-edge-midpoints="true"
     id="namedview3650"
     inkscape:cx="160.37747"
     inkscape:cy="435.7953"
     bordercolor="#666666"
     pagecolor="#ffffff"
     borderopacity="1"
     showgrid="false"
     inkscape:zoom="1.338553"
     guidetolerance="10"
     objecttolerance="10"
     gridtolerance="10" /><path
     id="path3510"
     inkscape:connector-curvature="0"
     d="m 333.44089,538.59513 -0.7,0.7 1.9,-0.7 -1.9,-0.7 z"
     style="stroke:#000000" /><path
     id="svg_46"
     inkscape:connector-curvature="0"
     d="m 335.24089,166.79513 v 0 c 0,-1.9 1.6,-3.5 3.5,-3.5 h 96.1 c 0.9,0 1.8,0.3 2.4,1 0.6,0.6 1,1.5 1,2.4 v 13.8 c 0,1.9 -1.6,3.5 -3.5,3.5 h -96.1 v 0 c -1.9,0 -3.5,-1.6 -3.5,-3.5 z"
     style="fill:#b6d7a8" /><path
     id="svg_48"
     inkscape:connector-curvature="0"
     d="m 369.04089,177.29513 v -7 h 1 v 7 z m 2.5,0 v -5.1 h 0.8 v 0.7 c 0.3,-0.5 0.9,-0.9 1.6,-0.9 0.3,0 0.6,0.1 0.9,0.2 0.3,0.1 0.4,0.3 0.6,0.4 0.1,0.2 0.2,0.3 0.3,0.6 0,0.2 0.1,0.4 0.1,0.9 v 3.1 h -0.9 v -3.1 c 0,-0.3 0,-0.6 -0.1,-0.8 -0.1,-0.2 -0.2,-0.3 -0.3,-0.4 -0.2,-0.1 -0.3,-0.2 -0.6,-0.2 -0.3,0 -0.7,0.1 -1,0.3 -0.3,0.3 -0.3,0.7 -0.3,1.3 v 2.8 z m 5.1,-1.6 0.9,-0.2 c 0.1,0.3 0.2,0.6 0.3,0.8 0.3,0.2 0.5,0.3 0.9,0.3 0.4,0 0.7,-0.1 0.9,-0.3 0.2,-0.2 0.3,-0.3 0.3,-0.6 0,-0.2 -0.1,-0.3 -0.3,-0.4 -0.1,-0.1 -0.4,-0.2 -0.9,-0.3 -0.6,-0.2 -1,-0.3 -1.3,-0.4 -0.3,-0.1 -0.4,-0.3 -0.5,-0.5 -0.1,-0.2 -0.2,-0.4 -0.2,-0.7 0,-0.3 0.1,-0.4 0.2,-0.6 0.1,-0.2 0.3,-0.3 0.4,-0.4 0.1,-0.1 0.3,-0.2 0.5,-0.3 0.3,-0.1 0.5,-0.1 0.8,-0.1 0.4,0 0.8,0.1 1,0.2 0.3,0.1 0.5,0.3 0.7,0.4 0.2,0.2 0.3,0.4 0.3,0.8 l -0.9,0.1 c 0,-0.3 -0.2,-0.4 -0.3,-0.6 -0.2,-0.2 -0.4,-0.3 -0.8,-0.3 -0.4,0 -0.7,0.1 -0.9,0.2 -0.2,0.1 -0.3,0.3 -0.3,0.4 0,0.1 0,0.2 0.1,0.3 0.1,0.1 0.2,0.2 0.3,0.3 0.1,0 0.3,0.1 0.8,0.3 0.6,0.2 1,0.3 1.3,0.4 0.3,0.1 0.4,0.3 0.5,0.4 0.2,0.2 0.2,0.4 0.2,0.7 0,0.3 -0.1,0.5 -0.3,0.8 -0.2,0.3 -0.4,0.4 -0.7,0.6 -0.3,0.2 -0.7,0.2 -1,0.2 -0.7,0 -1.1,-0.2 -1.5,-0.4 -0.2,-0.1 -0.4,-0.6 -0.5,-1.1 z m 7.1,0.8 0.1,0.8 c -0.3,0.1 -0.4,0.1 -0.6,0.1 -0.3,0 -0.5,-0.1 -0.7,-0.2 -0.2,-0.1 -0.3,-0.3 -0.3,-0.3 -0.1,-0.2 -0.1,-0.5 -0.1,-1 v -3 h -0.6 v -0.7 h 0.6 v -1.2 l 0.9,-0.5 v 1.7 h 0.9 v 0.7 h -0.9 v 3 c 0,0.3 0,0.4 0,0.4 0,0.1 0.1,0.1 0.2,0.2 0.1,0 0.2,0.1 0.3,0.1 -0.1,-0.1 0,-0.1 0.2,-0.1 z m 4.2,0.1 c -0.3,0.3 -0.6,0.4 -0.9,0.6 -0.3,0.1 -0.6,0.2 -1,0.2 -0.5,0 -1,-0.2 -1.3,-0.4 -0.3,-0.3 -0.4,-0.6 -0.4,-1 0,-0.3 0.1,-0.4 0.2,-0.7 0.1,-0.2 0.3,-0.3 0.4,-0.5 0.2,-0.1 0.3,-0.3 0.6,-0.3 0.2,-0.1 0.4,-0.1 0.8,-0.1 0.7,-0.1 1.2,-0.2 1.6,-0.3 0,-0.1 0,-0.2 0,-0.3 0,-0.3 -0.1,-0.6 -0.3,-0.7 -0.3,-0.2 -0.5,-0.3 -1,-0.3 -0.4,0 -0.7,0.1 -0.9,0.3 -0.2,0.2 -0.3,0.3 -0.4,0.8 l -0.9,-0.1 c 0.1,-0.3 0.2,-0.6 0.3,-0.9 0.2,-0.3 0.4,-0.3 0.8,-0.5 0.3,-0.1 0.7,-0.2 1.1,-0.2 0.4,0 0.8,0.1 1,0.2 0.2,0.1 0.4,0.3 0.6,0.3 0.1,0.2 0.2,0.3 0.3,0.6 0,0.2 0.1,0.4 0.1,0.8 v 1.1 c 0,0.8 0,1.3 0.1,1.5 0,0.2 0.1,0.4 0.3,0.6 h -0.9 c -0.1,-0.3 -0.2,-0.4 -0.2,-0.7 z m -0.1,-1.9 c -0.3,0.1 -0.8,0.3 -1.4,0.3 -0.3,0.1 -0.6,0.1 -0.8,0.2 -0.2,0.1 -0.3,0.2 -0.3,0.3 0,0.1 -0.1,0.3 -0.1,0.4 0,0.3 0.1,0.4 0.3,0.6 0.2,0.2 0.4,0.3 0.8,0.3 0.3,0 0.6,-0.1 0.9,-0.2 0.3,-0.2 0.4,-0.3 0.6,-0.6 0.1,-0.2 0.2,-0.4 0.2,-0.9 z m 2.2,2.6 v -5.1 h 0.8 v 0.7 c 0.3,-0.5 0.9,-0.9 1.6,-0.9 0.3,0 0.6,0.1 0.9,0.2 0.3,0.1 0.4,0.3 0.6,0.4 0.1,0.2 0.2,0.3 0.3,0.6 0,0.2 0.1,0.4 0.1,0.9 v 3.1 h -0.9 v -3.1 c 0,-0.3 0,-0.6 -0.1,-0.8 -0.1,-0.2 -0.2,-0.3 -0.3,-0.4 -0.2,-0.1 -0.3,-0.2 -0.6,-0.2 -0.3,0 -0.7,0.1 -1,0.3 -0.3,0.3 -0.3,0.7 -0.3,1.3 v 2.8 z m 8.7,-1.9 0.9,0.1 c -0.1,0.6 -0.3,1 -0.7,1.4 -0.4,0.4 -0.9,0.5 -1.4,0.5 -0.7,0 -1.2,-0.3 -1.7,-0.7 -0.4,-0.4 -0.6,-1.1 -0.6,-1.9 0,-0.5 0.1,-1 0.3,-1.4 0.2,-0.4 0.4,-0.7 0.9,-1 0.3,-0.2 0.8,-0.3 1.2,-0.3 0.5,0 1,0.2 1.4,0.4 0.3,0.3 0.6,0.7 0.7,1.2 l -0.9,0.1 c -0.1,-0.3 -0.3,-0.6 -0.4,-0.8 -0.1,-0.2 -0.4,-0.3 -0.7,-0.3 -0.4,0 -0.8,0.2 -1,0.4 -0.3,0.3 -0.4,0.8 -0.4,1.5 0,0.7 0.1,1.1 0.3,1.5 0.3,0.3 0.6,0.4 1,0.4 0.3,0 0.6,-0.1 0.9,-0.3 0.1,0 0.2,-0.4 0.2,-0.8 z m 5.1,0.2 0.9,0.1 c -0.2,0.5 -0.4,1 -0.8,1.2 -0.3,0.3 -0.9,0.4 -1.5,0.4 -0.8,0 -1.3,-0.3 -1.7,-0.7 -0.4,-0.4 -0.6,-1.1 -0.6,-1.9 0,-0.9 0.3,-1.5 0.7,-2 0.4,-0.4 1,-0.7 1.7,-0.7 0.7,0 1.2,0.3 1.7,0.7 0.4,0.4 0.6,1.1 0.6,1.9 0,0.1 0,0.1 0,0.3 h -3.8 c 0,0.5 0.2,1 0.4,1.3 0.3,0.3 0.6,0.4 1,0.4 0.3,0 0.6,-0.1 0.8,-0.3 0.3,-0.1 0.5,-0.3 0.6,-0.7 z m -2.8,-1.4 h 2.8 c 0,-0.4 -0.2,-0.8 -0.3,-1 -0.3,-0.3 -0.6,-0.5 -1,-0.5 -0.4,0 -0.7,0.2 -1,0.4 -0.3,0.3 -0.5,0.7 -0.5,1.1 z" /><path
     id="svg_102"
     inkscape:connector-curvature="0"
     d="m 273.94089,149.29513 h 61.3"
     style="fill-opacity:0" /><path
     id="svg_103"
     inkscape:connector-curvature="0"
     d="m 273.94089,149.29513 h 59.2"
     style="stroke:#000000;stroke-linejoin:round" /><path
     id="svg_104"
     inkscape:connector-curvature="0"
     d="m 333.04089,149.29513 -0.7,0.7 1.9,-0.7 -1.9,-0.7 z"
     style="stroke:#000000" /><path
     id="svg_107"
     inkscape:connector-curvature="0"
     d="m 273.94089,173.69513 h 61.3"
     style="fill-opacity:0" /><path
     id="svg_108"
     inkscape:connector-curvature="0"
     d="m 273.94089,173.69513 h 59.2"
     style="stroke:#000000;stroke-linejoin:round" /><path
     id="svg_109"
     inkscape:connector-curvature="0"
     d="m 333.04089,173.69513 -0.7,0.7 1.9,-0.7 -1.9,-0.7 z"
     style="stroke:#000000" /><path
     id="svg_110"
     inkscape:connector-curvature="0"
     d="m 273.94089,197.99513 h 61.3"
     style="fill-opacity:0" /><path
     id="svg_111"
     inkscape:connector-curvature="0"
     d="m 273.94089,197.99513 h 59.2"
     style="stroke:#000000;stroke-linejoin:round" /><path
     id="svg_112"
     inkscape:connector-curvature="0"
     d="m 333.04089,197.99513 -0.7,0.7 1.9,-0.7 -1.9,-0.7 z"
     style="stroke:#000000" /><path
     id="svg_113"
     inkscape:connector-curvature="0"
     d="m 273.94089,222.29513 h 61.3"
     style="fill-opacity:0" /><path
     id="svg_114"
     inkscape:connector-curvature="0"
     d="m 273.94089,222.29513 h 59.2"
     style="stroke:#000000;stroke-linejoin:round" /><path
     id="svg_115"
     inkscape:connector-curvature="0"
     d="m 333.04089,222.29513 -0.7,0.7 1.9,-0.7 -1.9,-0.7 z"
     style="stroke:#000000" /><path
     id="svg_116"
     inkscape:connector-curvature="0"
     d="m 273.94089,292.29513 h 61.3"
     style="fill-opacity:0" /><path
     id="svg_117"
     inkscape:connector-curvature="0"
     d="m 273.94089,292.29513 h 59.2"
     style="stroke:#000000;stroke-linejoin:round" /><path
     id="svg_118"
     inkscape:connector-curvature="0"
     d="m 333.04089,292.29513 -0.7,0.7 1.9,-0.7 -1.9,-0.7 z"
     style="stroke:#000000" /><path
     id="svg_119"
     inkscape:connector-curvature="0"
     d="m 273.94089,317.29513 h 61.3"
     style="fill-opacity:0" /><path
     id="svg_120"
     inkscape:connector-curvature="0"
     d="m 273.94089,317.29513 h 59.2"
     style="stroke:#000000;stroke-linejoin:round" /><path
     id="svg_121"
     inkscape:connector-curvature="0"
     d="m 333.04089,317.29513 -0.7,0.7 1.9,-0.7 -1.9,-0.7 z"
     style="stroke:#000000" /><path
     id="svg_122"
     inkscape:connector-curvature="0"
     d="m 273.94089,390.49513 h 61.3"
     style="fill-opacity:0" /><path
     id="svg_123"
     inkscape:connector-curvature="0"
     d="m 273.94089,390.49513 h 59.2"
     style="stroke:#000000;stroke-linejoin:round" /><path
     id="svg_124"
     inkscape:connector-curvature="0"
     d="m 333.04089,390.49513 -0.7,0.7 1.9,-0.7 -1.9,-0.7 z"
     style="stroke:#000000" /><path
     id="svg_125"
     inkscape:connector-curvature="0"
     d="m 273.94089,416.49513 h 61.3"
     style="fill-opacity:0" /><path
     id="svg_126"
     inkscape:connector-curvature="0"
     d="m 273.94089,416.49513 h 59.2"
     style="stroke:#000000;stroke-linejoin:round" /><path
     id="svg_127"
     inkscape:connector-curvature="0"
     d="m 333.04089,416.49513 -0.7,0.7 1.9,-0.7 -1.9,-0.7 z"
     style="stroke:#000000" /><path
     id="svg_128"
     inkscape:connector-curvature="0"
     d="m 333.51539,451.26733 h 61.3"
     style="fill-opacity:0" /><path
     id="svg_129"
     inkscape:connector-curvature="0"
     d="m 271.91539,443.06733 h 59.2"
     style="stroke:#000000;stroke-linejoin:round" /><path
     id="svg_130"
     inkscape:connector-curvature="0"
     d="m 332.01539,443.06733 -0.7,0.7 1.9,-0.7 -1.9,-0.7 z"
     style="stroke:#000000" /><path
     id="svg_147"
     inkscape:connector-curvature="0"
     d="m 438.24089,222.29513 h 34.8"
     style="fill-opacity:0" /><path
     id="svg_148"
     inkscape:connector-curvature="0"
     d="m 438.24089,222.29513 h 31.2"
     style="stroke:#000000;stroke-linejoin:round" /><path
     id="svg_149"
     inkscape:connector-curvature="0"
     d="m 469.34089,223.39513 2.8,-1 -2.8,-1 z"
     style="stroke:#000000" /><path
     id="svg_150"
     inkscape:connector-curvature="0"
     d="m 438.24089,317.29513 h 34.8"
     style="fill-opacity:0" /><path
     id="svg_151"
     inkscape:connector-curvature="0"
     d="m 438.24089,317.29513 h 31.2"
     style="stroke:#000000;stroke-linejoin:round" /><path
     id="svg_152"
     inkscape:connector-curvature="0"
     d="m 469.34089,318.19513 2.8,-1 -2.8,-1 z"
     style="stroke:#000000" /><path
     id="svg_153"
     inkscape:connector-curvature="0"
     d="m 497.81539,474.26733 h 34.8"
     style="fill-opacity:0" /><path
     id="svg_154"
     inkscape:connector-curvature="0"
     d="m 437.71539,443.06733 h 31.2"
     style="stroke:#000000;stroke-linejoin:round" /><path
     id="svg_155"
     inkscape:connector-curvature="0"
     d="m 468.31539,444.16733 2.8,-1 -2.8,-1 z"
     style="stroke:#000000" /><path
     id="e22_46"
     inkscape:connector-curvature="0"
     d="m 335.24089,166.79513 v 0 c 0,-1.9 1.6,-3.5 3.5,-3.5 h 96.1 c 0.9,0 1.8,0.3 2.4,1 0.6,0.6 1,1.5 1,2.4 v 13.8 c 0,1.9 -1.6,3.5 -3.5,3.5 h -96.1 v 0 c -1.9,0 -3.5,-1.6 -3.5,-3.5 z"
     style="fill:#b6d7a8" /><text
     id="e18_texte"
     font-size="7.0251"
     style="font-size:7.02510023px;line-height:0%;font-family:ArialMT"
     x="444.3421"
     y="220.01813">.zones</text>
<text
     id="e19_texte"
     font-size="7.0251"
     style="font-size:7.02510023px;line-height:0%;font-family:ArialMT"
     x="444.34308"
     y="314.85751">.rules</text>
<text
     id="e20_texte"
     font-size="7.0251"
     style="font-size:7.02510023px;line-height:0%;font-family:ArialMT"
     x="439.46539"
     y="440.46094">.objects</text>
<a
     xlink:href="../api_docs/cloud/providers.html#cloudprovider"
     id="svg_14"
     transform="translate(-4.35911,-74.104872)"><path
       id="svg_4"
       inkscape:connector-curvature="0"
       d="m 27.5,141.8 v 0 c 0,-3 2.4,-5.3 5.3,-5.3 h 69.1 c 1.4,0 2.8,0.5 3.8,1.6 1,1 1.6,2.4 1.6,3.8 V 163 c 0,3 -2.4,5.3 -5.3,5.3 H 32.9 v 0 c -3,0 -5.3,-2.4 -5.3,-5.3 -0.1,0 -0.1,-21.2 -0.1,-21.2 z"
       style="fill:#a4c2f4;stroke:#000000" /><text
       id="svg_162"
       transform="translate(40.8809,156.3193)"
       font-size="14.688"
       style="font-size:14.68799973px;line-height:0%;font-family:Helvetica">provider</text>
</a><a
     xlink:href="../api_docs/cloud/services.html#computeservice"
     id="svg_15"
     transform="translate(-4.35911,-74.104872)"><path
       id="svg_7"
       inkscape:connector-curvature="0"
       d="m 97.4,177.6 v 0 c 0,-3 2.4,-5.3 5.3,-5.3 H 211 c 1.4,0 2.8,0.5 3.8,1.6 1,1.1 1.6,2.4 1.6,3.8 v 21.2 c 0,3 -2.4,5.3 -5.3,5.3 H 102.7 c -3,0 -5.3,-2.4 -5.3,-5.3 z"
       style="fill:#ffe599;stroke:#000000" /><text
       id="svg_3"
       transform="translate(132.6353,191.5918)"
       font-size="12.6452"
       style="font-size:12.64519978px;line-height:0%;font-family:Helvetica">compute</text>
</a><a
     xlink:href="../api_docs/cloud/services.html#securityservice"
     id="svg_17"
     transform="translate(-4.35911,-74.104872)"><path
       id="svg_10"
       inkscape:connector-curvature="0"
       d="m 97.4,320 v 0 c 0,-3 2.4,-5.3 5.3,-5.3 H 211 c 1.4,0 2.8,0.5 3.8,1.6 1,1 1.6,2.4 1.6,3.8 v 21.2 c 0,3 -2.4,5.3 -5.3,5.3 H 102.7 c -3,0 -5.3,-2.4 -5.3,-5.3 z"
       style="fill:#ffe599;stroke:#000000" /><text
       id="e1_texte"
       transform="translate(135.0933,334.9209)"
       font-size="12.6452"
       style="font-size:12.64519978px;line-height:0%;font-family:ArialMT">security</text>
</a><a
     xlink:href="../api_docs/cloud/services.html#storageservice"
     id="svg_18"
     transform="translate(-4.35911,-74.104872)"><path
       id="svg_13"
       inkscape:connector-curvature="0"
       d="m 97.4,419.2 v 0 c 0,-3 2.4,-5.3 5.3,-5.3 H 211 c 1.4,0 2.8,0.5 3.8,1.6 1,1 1.6,2.4 1.6,3.8 v 21.2 c 0,3 -2.4,5.3 -5.3,5.3 H 102.7 c -3,0 -5.3,-2.4 -5.3,-5.3 z"
       style="fill:#ffe599;stroke:#000000" /><text
       id="e2_texte"
       font-size="12.6452"
       style="font-size:12.64519978px;line-height:0%;font-family:ArialMT"
       x="134.5361"
       y="434.0459">storage</text>
</a><a
     xlink:href="../api_docs/cloud/services.html#imageservice"
     id="svg_21"
     transform="translate(-4.35911,-74.104872)"><path
       id="svg_31"
       inkscape:connector-curvature="0"
       d="m 175.3,216.5 v 0 c 0,-1.9 1.6,-3.5 3.5,-3.5 h 96.1 c 0.9,0 1.8,0.3 2.4,1 0.6,0.6 1,1.5 1,2.4 v 13.8 c 0,1.9 -1.6,3.5 -3.5,3.5 h -96.2 v 0 c -1.9,0 -3.5,-1.6 -3.5,-3.5 z"
       style="fill:#ffe599;stroke:#000000" /><text
       id="svg_5"
       transform="translate(208.6568,227.4106)"
       font-size="11.2402"
       style="font-size:11.24020004px;line-height:0%;font-family:ArialMT">images</text>
</a><a
     xlink:href="../api_docs/cloud/services.html#vmtypesservice"
     id="svg_23"
     transform="translate(-4.35911,-74.104872)"><path
       id="svg_34"
       inkscape:connector-curvature="0"
       d="m 175.3,240.9 v 0 c 0,-1.9 1.6,-3.5 3.5,-3.5 h 96.1 c 0.9,0 1.8,0.3 2.4,1 0.6,0.6 1,1.5 1,2.4 v 13.8 c 0,1.9 -1.6,3.5 -3.5,3.5 h -96.2 v 0 c -1.9,0 -3.5,-1.6 -3.5,-3.5 z"
       style="fill:#ffe599;stroke:#000000" /><text
       id="svg_6"
       font-size="11.2402"
       style="font-size:11.24020004px;line-height:0%;font-family:Helvetica"
       x="203.2832"
       y="250.8262">vm_types</text>
</a><a
     xlink:href="../api_docs/cloud/services.html#instanceservice"
     id="svg_24"
     transform="translate(-4.35911,-74.104872)"><path
       id="svg_37"
       inkscape:connector-curvature="0"
       d="m 175.3,265.2 v 0 c 0,-1.9 1.6,-3.5 3.5,-3.5 h 96.1 c 0.9,0 1.8,0.3 2.4,1 0.6,0.6 1,1.5 1,2.4 V 279 c 0,1.9 -1.6,3.5 -3.5,3.5 h -96.2 v 0 c -1.9,0 -3.5,-1.6 -3.5,-3.5 z"
       style="fill:#ffe599;stroke:#000000" /><text
       id="svg_8"
       transform="translate(203.0318,275.1611)"
       font-size="11.2402"
       style="font-size:11.24020004px;line-height:0%;font-family:Helvetica">instances</text>
</a><a
     xlink:href="../api_docs/cloud/services.html#regionservice"
     id="svg_26"
     transform="translate(-4.35911,-74.104872)"><path
       id="svg_40"
       inkscape:connector-curvature="0"
       d="m 175.3,289.5 v 0 c 0,-1.9 1.6,-3.5 3.5,-3.5 h 96.1 c 0.9,0 1.8,0.3 2.4,1 0.6,0.6 1,1.5 1,2.4 v 13.8 c 0,1.9 -1.6,3.5 -3.5,3.5 h -96.2 v 0 c -1.9,0 -3.5,-1.6 -3.5,-3.5 z"
       style="fill:#ffe599;stroke:#000000" /><text
       id="svg_9"
       transform="translate(208.3418,299.4947)"
       font-size="11.2402"
       style="font-size:11.24020004px;line-height:0%;font-family:Helvetica">regions</text>
</a><a
     xlink:href="../api_docs/cloud/services.html#keypairservice"
     id="svg_27"
     transform="translate(-4.35911,-74.104872)"><path
       id="svg_28"
       inkscape:connector-curvature="0"
       d="m 175.3,359.5 v 0 c 0,-1.9 1.6,-3.5 3.5,-3.5 h 96.1 c 0.9,0 1.8,0.3 2.4,1 0.6,0.6 1,1.5 1,2.4 v 13.8 c 0,1.9 -1.6,3.5 -3.5,3.5 h -96.2 v 0 c -1.9,0 -3.5,-1.6 -3.5,-3.5 z"
       style="fill:#ffe599;stroke:#000000" /><text
       id="e3_texte"
       transform="translate(205.8438,370.3667)"
       font-size="11.2402"
       style="font-size:11.24020004px;line-height:0%;font-family:ArialMT">keypairs</text>
</a><a
     xlink:href="../api_docs/cloud/services.html#vmfirewallservice"
     id="svg_29"
     transform="translate(-4.35911,-74.104872)"><path
       id="svg_43"
       inkscape:connector-curvature="0"
       d="m 175.3,384.5 v 0 c 0,-1.9 1.6,-3.5 3.5,-3.5 h 96.1 c 0.9,0 1.8,0.3 2.4,1 0.6,0.6 1,1.5 1,2.4 v 13.8 c 0,1.9 -1.6,3.5 -3.5,3.5 h -96.2 v 0 c -1.9,0 -3.5,-1.6 -3.5,-3.5 z"
       style="fill:#ffe599;stroke:#000000" /><text
       id="e4_texte"
       font-size="11.2402"
       style="font-size:11.24020004px;line-height:0%;font-family:ArialMT"
       x="197.0957"
       y="395.31351">vm_firewalls</text>
</a><a
     xlink:href="../api_docs/cloud/services.html#volumeservice"
     id="svg_30"
     transform="translate(-4.35911,-74.104872)"><path
       id="svg_19"
       inkscape:connector-curvature="0"
       d="m 175.3,457.7 v 0 c 0,-1.9 1.6,-3.5 3.5,-3.5 h 96.1 c 0.9,0 1.8,0.3 2.4,1 0.6,0.6 1,1.5 1,2.4 v 13.8 c 0,1.9 -1.6,3.5 -3.5,3.5 h -96.2 v 0 c -1.9,0 -3.5,-1.6 -3.5,-3.5 z"
       style="fill:#ffe599;stroke:#000000" /><text
       id="e6_texte"
       transform="translate(205.8438,468.6387)"
       font-size="11.2402"
       style="font-size:11.24020004px;line-height:0%;font-family:ArialMT">volumes</text>
</a><a
     xlink:href="../api_docs/cloud/services.html#snapshotservice"
     id="svg_32"
     transform="translate(-4.35911,-74.104872)"><path
       id="svg_22"
       inkscape:connector-curvature="0"
       d="m 175.3,483.7 v 0 c 0,-1.9 1.6,-3.5 3.5,-3.5 h 96.1 c 0.9,0 1.8,0.3 2.4,1 0.6,0.6 1,1.5 1,2.4 v 13.8 c 0,1.9 -1.6,3.5 -3.5,3.5 h -96.2 v 0 c -1.9,0 -3.5,-1.6 -3.5,-3.5 z"
       style="fill:#ffe599;stroke:#000000" /><text
       id="e7_texte"
       transform="translate(201.1515,494.6104)"
       font-size="11.2402"
       style="font-size:11.24020004px;line-height:0%;font-family:ArialMT">snapshots</text>
</a><a
     xlink:href="../api_docs/cloud/resources.html#bucket"
     id="svg_25"
     transform="translate(55.215394,-83.432673)"><path
       id="svg_93"
       inkscape:connector-curvature="0"
       d="m 279,519.6 v 0 c 0,-1.9 1.6,-3.5 3.5,-3.5 h 96.1 c 0.9,0 1.8,0.3 2.4,1 0.6,0.6 1,1.5 1,2.4 v 13.8 c 0,1.9 -1.6,3.5 -3.5,3.5 h -96.2 v 0 c -1.9,0 -3.5,-1.6 -3.5,-3.5 z"
       style="fill:#b6d7a8;stroke:#000000" /><text
       id="e33_5"
       transform="translate(313.2588,530.5089)"
       font-size="11.2402"
       style="font-size:11.24020004px;line-height:0%;font-family:ArialMT">Bucket</text>
</a><a
     xlink:href="../api_docs/cloud/resources.html#bucketobject"
     id="svg_33"
     transform="translate(55.215394,-83.432673)"><path
       id="svg_96"
       inkscape:connector-curvature="0"
       d="m 416.8,519.6 v 0 c 0,-1.9 1.6,-3.5 3.5,-3.5 h 96.1 c 0.9,0 1.8,0.3 2.4,1 0.6,0.6 1,1.5 1,2.4 v 13.8 c 0,1.9 -1.6,3.5 -3.5,3.5 h -96.1 v 0 c -1.9,0 -3.5,-1.6 -3.5,-3.5 v -13.7 z"
       style="fill:#b6d7a8;stroke:#000000" /><text
       id="e34_5"
       transform="translate(434.8828,530.5089)"
       font-size="11.2402"
       style="font-size:11.24020004px;line-height:0%;font-family:ArialMT">BucketObject</text>
</a><a
     xlink:href="../api_docs/cloud/resources.html#vmfirewallrule"
     id="svg_35"
     transform="translate(-4.35911,-74.104872)"><path
       id="svg_12"
       inkscape:connector-curvature="0"
       d="m 477.6,383.9 v 0 c 0,-1.9 1.6,-3.5 3.5,-3.5 h 96.1 c 0.9,0 1.8,0.3 2.4,1 0.6,0.6 1,1.5 1,2.4 v 13.8 c 0,1.9 -1.6,3.5 -3.5,3.5 H 481 v 0 c -1.9,0 -3.5,-1.6 -3.5,-3.5 v -13.7 z"
       style="fill:#b6d7a8;stroke:#000000" /><text
       id="e36_5"
       font-size="11.2402"
       style="font-size:11.24020004px;line-height:0%;font-family:ArialMT"
       x="487.66019"
       y="394.80569">VMFirewallRule</text>
</a><a
     xlink:href="../api_docs/cloud/resources.html#vmfirewall"
     id="svg_36"
     transform="translate(-4.35911,-74.104872)"><path
       id="svg_61"
       inkscape:connector-curvature="0"
       d="m 339.6,384.5 v 0 c 0,-1.9 1.6,-3.5 3.5,-3.5 h 96.1 c 0.9,0 1.8,0.3 2.4,1 0.6,0.6 1,1.5 1,2.4 v 13.8 c 0,1.9 -1.6,3.5 -3.5,3.5 H 343 v 0 c -1.9,0 -3.5,-1.6 -3.5,-3.5 z"
       style="fill:#b6d7a8;stroke:#000000" /><text
       id="e30_5"
       font-size="11.2402"
       style="font-size:11.24020004px;line-height:0%;font-family:ArialMT"
       x="363.10751"
       y="395.31351">VMFirewall</text>
</a><a
     xlink:href="../api_docs/cloud/resources.html#snapshot"
     id="svg_38"
     transform="translate(-4.35911,-74.104872)"><path
       id="svg_58"
       inkscape:connector-curvature="0"
       d="m 339.6,483.7 v 0 c 0,-1.9 1.6,-3.5 3.5,-3.5 h 96.1 c 0.9,0 1.8,0.3 2.4,1 0.6,0.6 1,1.5 1,2.4 v 13.8 c 0,1.9 -1.6,3.5 -3.5,3.5 H 343 v 0 c -1.9,0 -3.5,-1.6 -3.5,-3.5 z"
       style="fill:#b6d7a8;stroke:#000000" /><text
       id="e32_5"
       transform="translate(367.2803,494.6104)"
       font-size="11.2402"
       style="font-size:11.24020004px;line-height:0%;font-family:ArialMT">Snapshot</text>
</a><a
     xlink:href="../api_docs/cloud/resources.html#volume"
     id="svg_39"
     transform="translate(-4.35911,-74.104872)"><path
       id="svg_55"
       inkscape:connector-curvature="0"
       d="m 339.6,457.7 v 0 c 0,-1.9 1.6,-3.5 3.5,-3.5 h 96.1 c 0.9,0 1.8,0.3 2.4,1 0.6,0.6 1,1.5 1,2.4 v 13.8 c 0,1.9 -1.6,3.5 -3.5,3.5 H 343 v 0 c -1.9,0 -3.5,-1.6 -3.5,-3.5 z"
       style="fill:#b6d7a8;stroke:#000000" /><text
       id="e31_5"
       transform="translate(367.8213,468.6387)"
       font-size="11.2402"
       style="font-size:11.24020004px;line-height:0%;font-family:ArialMT">Volume</text>
</a><a
     xlink:href="../api_docs/cloud/resources.html#keypair"
     id="svg_41"
     transform="translate(-4.35911,-74.104872)"><path
       id="svg_99"
       inkscape:connector-curvature="0"
       d="m 339.6,359.5 v 0 c 0,-1.9 1.6,-3.5 3.5,-3.5 h 96.1 c 0.9,0 1.8,0.3 2.4,1 0.6,0.6 1,1.5 1,2.4 v 13.8 c 0,1.9 -1.6,3.5 -3.5,3.5 H 343 v 0 c -1.9,0 -3.5,-1.6 -3.5,-3.5 z"
       style="fill:#b6d7a8;stroke:#000000" /><text
       id="e29_5"
       transform="translate(371.3496,370.3667)"
       font-size="11.2402"
       style="font-size:11.24020004px;line-height:0%;font-family:ArialMT">KeyPair</text>
</a><a
     xlink:href="../api_docs/cloud/resources.html#placementzone"
     id="svg_42"
     transform="translate(-4.35911,-74.104872)"><path
       id="svg_87"
       inkscape:connector-curvature="0"
       d="m 477.4,289.5 v 0 c 0,-1.9 1.6,-3.5 3.5,-3.5 H 577 c 0.9,0 1.8,0.3 2.4,1 0.6,0.6 1,1.5 1,2.4 v 13.8 c 0,1.9 -1.6,3.5 -3.5,3.5 h -96.1 v 0 c -1.9,0 -3.5,-1.6 -3.5,-3.5 v -13.7 z"
       style="fill:#b6d7a8;stroke:#000000" /><text
       id="e35_5"
       transform="translate(489.5313,300.4126)"
       font-size="11.2402"
       style="font-size:11.24020004px;line-height:0%;font-family:ArialMT">PlacementZone</text>
</a><a
     xlink:href="../api_docs/cloud/resources.html#region"
     id="svg_44"
     transform="translate(-4.35911,-74.104872)"><path
       id="svg_64"
       inkscape:connector-curvature="0"
       d="m 339.6,289.5 v 0 c 0,-1.9 1.6,-3.5 3.5,-3.5 h 96.1 c 0.9,0 1.8,0.3 2.4,1 0.6,0.6 1,1.5 1,2.4 v 13.8 c 0,1.9 -1.6,3.5 -3.5,3.5 H 343 v 0 c -1.9,0 -3.5,-1.6 -3.5,-3.5 z"
       style="fill:#b6d7a8;stroke:#000000" /><text
       id="e28_5"
       transform="translate(374.9112,300.4126)"
       font-size="11.2402"
       style="font-size:11.24020004px;line-height:0%;font-family:ArialMT">Region</text>
</a><a
     xlink:href="../api_docs/cloud/resources.html#instance"
     id="svg_45"
     transform="translate(-4.35911,-74.104872)"><path
       id="svg_11"
       inkscape:connector-curvature="0"
       d="m 339.6,264.5 v 0 c 0,-1.9 1.6,-3.5 3.5,-3.5 h 96.1 c 0.9,0 1.8,0.3 2.4,1 0.6,0.6 1,1.5 1,2.4 v 13.8 c 0,1.9 -1.6,3.5 -3.5,3.5 H 343 v 0 c -1.9,0 -3.5,-1.6 -3.5,-3.5 z"
       style="fill:#b6d7a8;stroke:#000000" /><text
       id="e27_5"
       transform="translate(369.7832,275.3926)"
       font-size="11.2402"
       style="font-size:11.24020004px;line-height:0%;font-family:ArialMT">Instance</text>
</a><a
     xlink:href="../api_docs/cloud/resources.html#vmtype"
     id="svg_47"
     transform="translate(-4.35911,-74.104872)"><path
       id="e24_46"
       inkscape:connector-curvature="0"
       d="m 339.6,240.9 v 0 c 0,-1.9 1.6,-3.5 3.5,-3.5 h 96.1 c 0.9,0 1.8,0.3 2.4,1 0.6,0.6 1,1.5 1,2.4 v 13.8 c 0,1.9 -1.6,3.5 -3.5,3.5 H 343 v 0 c -1.9,0 -3.5,-1.6 -3.5,-3.5 z"
       style="fill:#b6d7a8;stroke:#000000" /><text
       id="e26_5"
       font-size="11.2402"
       style="font-size:11.24020004px;line-height:0%;font-family:ArialMT"
       x="371.5997"
       y="251.74471">VMType</text>
</a><a
     xlink:href="../api_docs/cloud/resources.html#machineimage"
     id="svg_49"
     transform="translate(-4.35911,-74.104872)"><path
       id="svg_2"
       inkscape:connector-curvature="0"
       d="m 339.6,215.8 v 0 c 0,-1.9 1.6,-3.5 3.5,-3.5 h 96.1 c 0.9,0 1.8,0.3 2.4,1 0.6,0.6 1,1.5 1,2.4 v 13.8 c 0,1.9 -1.6,3.5 -3.5,3.5 H 343 v 0 c -1.9,0 -3.5,-1.6 -3.5,-3.5 z"
       style="fill:#b6d7a8;stroke:#000000" /><text
       id="e25_5"
       transform="translate(354.166,226.7388)"
       font-size="11.2402"
       style="font-size:11.24020004px;line-height:0%;font-family:ArialMT">MachineImage</text>
</a><path
     id="path3922"
     inkscape:connector-type="polyline"
     inkscape:connector-curvature="0"
     d="M 62.64089,93.695126 V 478.76001"
     style="fill:none;stroke:#000000;stroke-width:1.11462188" /><path
     id="path3924"
     inkscape:connector-type="polyline"
     inkscape:connector-curvature="0"
     d="m 63.04089,114.29513 29.7,-0.3"
     style="fill:none;stroke:#000000;stroke-width:0.92979997" /><path
     id="path3924-6"
     inkscape:connector-type="polyline"
     inkscape:connector-curvature="0"
     d="m 151.84089,149.09513 18.7,-0.3"
     style="fill:none;stroke:#000000;stroke-width:0.74690002" /><path
     id="path3924-6-7"
     inkscape:connector-type="polyline"
     inkscape:connector-curvature="0"
     d="m 151.84089,173.39513 18.7,-0.3"
     style="fill:none;stroke:#000000;stroke-width:0.74690002" /><path
     id="path3924-6-1"
     inkscape:connector-type="polyline"
     inkscape:connector-curvature="0"
     d="m 151.84089,198.59513 18.7,-0.3"
     style="fill:none;stroke:#000000;stroke-width:0.74690002" /><path
     id="path3924-6-8"
     inkscape:connector-type="polyline"
     inkscape:connector-curvature="0"
     d="m 151.84089,222.49513 18.7,-0.3"
     style="fill:none;stroke:#000000;stroke-width:0.74690002" /><path
     id="path3922-6"
     inkscape:connector-type="polyline"
     inkscape:connector-curvature="0"
     d="m 152.14089,130.29513 0.1,92.3"
     style="fill:none;stroke:#000000;stroke-width:1.06640005" /><path
     id="path3924-6-4"
     inkscape:connector-type="polyline"
     inkscape:connector-curvature="0"
     d="m 152.84089,292.09513 17.7,-0.3"
     style="fill:none;stroke:#000000;stroke-width:0.73479998" /><path
     id="path3924-6-7-8"
     inkscape:connector-type="polyline"
     inkscape:connector-curvature="0"
     d="m 152.44089,317.79513 18.1,-0.3"
     style="fill:none;stroke:#000000;stroke-width:0.73930001" /><path
     id="path3922-6-4"
     inkscape:connector-type="polyline"
     inkscape:connector-curvature="0"
     d="m 152.84089,272.79513 0.1,45.3"
     style="fill:none;stroke:#000000;stroke-width:0.99339998" /><path
     id="path3924-6-4-8"
     inkscape:connector-type="polyline"
     inkscape:connector-curvature="0"
     d="m 154.24253,391.29572 16.29691,-0.30118"
     style="fill:none;stroke:#000000;stroke-width:0.70645821" /><path
     id="path3924-6-7-8-2"
     inkscape:connector-type="polyline"
     inkscape:connector-curvature="0"
     d="m 154.24279,417.09587 16.29629,-0.30148"
     style="fill:none;stroke:#000000;stroke-width:0.70322043" /><path
     id="path3922-6-4-3"
     inkscape:connector-type="polyline"
     inkscape:connector-curvature="0"
     d="m 153.77461,372.08122 -0.055,70.68339"
     style="fill:none;stroke:#000000;stroke-width:0.92049026" /><path
     id="svg_122-9"
     inkscape:connector-curvature="0"
     d="m 154.54089,512.99513 h 61.3"
     style="fill-opacity:0" /><path
     id="svg_123-8"
     inkscape:connector-curvature="0"
     d="m 154.04089,512.99513 h 18.21086"
     style="stroke:#000000;stroke-width:0.5546571;stroke-linejoin:round" /><path
     id="svg_124-2"
     inkscape:connector-curvature="0"
     d="m 170.84089,512.59513 -0.7,0.7 1.9,-0.7 -1.9,-0.7 z"
     style="stroke:#000000" /><path
     id="svg_125-7"
     inkscape:connector-curvature="0"
     d="m 154.54089,538.99513 h 61.3"
     style="fill-opacity:0" /><path
     id="svg_126-3"
     inkscape:connector-curvature="0"
     d="m 154.04089,538.99513 h 20.20607"
     style="stroke:#000000;stroke-width:0.58435166;stroke-linejoin:round" /><path
     id="svg_127-3"
     inkscape:connector-curvature="0"
     d="m 171.54089,538.59513 -0.7,0.7 1.9,-0.7 -1.9,-0.7 z"
     style="stroke:#000000" /><a
     xlink:href="../api_docs/cloud/services.html#networkingservice"
     id="svg_18-0"
     transform="translate(-4.35911,136.18574)"><path
       id="svg_13-4"
       inkscape:connector-curvature="0"
       d="m 97.4,331.4 v 0 c 0,-3 2.4,-5.3 5.3,-5.3 H 211 c 1.4,0 2.8,0.5 3.8,1.6 1,1 1.6,2.4 1.6,3.8 v 21.2 c 0,3 -2.4,5.3 -5.3,5.3 H 102.7 c -3,0 -5.3,-2.4 -5.3,-5.3 z"
       style="fill:#ffe599;stroke:#000000" /><text
       id="e2_texte-0"
       transform="translate(124.5361,346.2456)"
       font-size="12.6452"
       style="font-size:12.64519978px;line-height:0%;font-family:ArialMT">networking</text>
</a><a
     xlink:href="../api_docs/cloud/services.html#subnetservice"
     id="svg_38-3"
     transform="translate(-142.15911,136.27478)"><path
       id="svg_58-7"
       inkscape:connector-curvature="0"
       d="m 314.1,395.6 v 0 c 0,-1.9 1.6,-3.5 3.5,-3.5 h 96.1 c 0.9,0 1.8,0.3 2.4,1 0.6,0.6 1,1.5 1,2.4 v 13.8 c 0,1.9 -1.6,3.5 -3.5,3.5 h -96.1 v 0 c -1.9,0 -3.5,-1.6 -3.5,-3.5 v -13.7 z"
       style="fill:#ffe599;stroke:#000000" /><text
       id="e32_5-8"
       transform="translate(345.88,406.5241)"
       font-size="11.2402"
       style="font-size:11.24020004px;line-height:0%;font-family:ArialMT">subnets</text>
</a><a
     xlink:href="../api_docs/cloud/services.html#networkservice"
     id="svg_39-0"
     transform="translate(-143.7042,135.77025)"><path
       id="svg_55-9"
       inkscape:connector-curvature="0"
       d="m 314.7,369.2 v 0 c 0,-1.9 1.6,-3.5 3.5,-3.5 h 96.1 c 0.9,0 1.8,0.3 2.4,1 0.6,0.6 1,1.5 1,2.4 V 383 c 0,1.9 -1.6,3.5 -3.5,3.5 H 318 v 0 c -1.9,0 -3.5,-1.6 -3.5,-3.5 z"
       style="fill:#ffe599;stroke:#000000" /><text
       id="e31_5-1"
       transform="translate(339.2132,380.2806)"
       font-size="11.2402"
       style="font-size:11.24020004px;line-height:0%;font-family:ArialMT">networks</text>
</a><a
     xlink:href="../api_docs/cloud/resources.html#network"
     id="a3500"
     transform="translate(124.27193,135.68572)"><path
       id="path3502"
       inkscape:connector-curvature="0"
       d="m 211.6,395.7 v 0 c 0,-1.9 1.6,-3.5 3.5,-3.5 h 96.1 c 0.9,0 1.8,0.3 2.4,1 0.6,0.6 1,1.5 1,2.4 v 13.8 c 0,1.9 -1.6,3.5 -3.5,3.5 H 215 v 0 c -1.9,0 -3.5,-1.6 -3.5,-3.5 z"
       style="fill:#b6d7a8;stroke:#000000" /><text
       id="text3504"
       transform="translate(242.4641,379.958)"
       font-size="11.2402"
       style="font-size:11.24020004px;line-height:0%;font-family:ArialMT">Network</text>
</a><a
     xlink:href="../api_docs/cloud/resources.html#subnet"
     id="a3500_1_"
     transform="translate(124.27193,135.68572)"><path
       id="path3502_1_"
       inkscape:connector-curvature="0"
       d="m 211.6,395.7 v 0 c 0,-1.9 1.6,-3.5 3.5,-3.5 h 96.1 c 0.9,0 1.8,0.3 2.4,1 0.6,0.6 1,1.5 1,2.4 v 13.8 c 0,1.9 -1.6,3.5 -3.5,3.5 H 215 v 0 c -1.9,0 -3.5,-1.6 -3.5,-3.5 z"
       style="fill:#b6d7a8;stroke:#000000" /><text
       id="text3504_1_"
       transform="translate(245.2639,406.5938)"
       font-size="11.2402"
       style="font-size:11.24020004px;line-height:0%;font-family:ArialMT">Subnet</text>
</a><path
     id="path3506"
     inkscape:connector-curvature="0"
     d="m 276.44089,538.59513 h 58.1"
     style="stroke:#000000;stroke-width:0.99159998;stroke-linejoin:round" /><path
     id="path3506_1_"
     inkscape:connector-curvature="0"
     d="m 276.44089,538.59513 h 58.1"
     style="stroke:#000000;stroke-width:0.99159998;stroke-linejoin:round" /><path
     id="path3506_6_"
     inkscape:connector-curvature="0"
     d="M 335.04089,515.69513"
     style="stroke:#000000;stroke-width:0.99159998;stroke-linejoin:round" /><path
     id="path3506_2_"
     inkscape:connector-curvature="0"
     d="M 276.94089,515.69513"
     style="stroke:#000000;stroke-width:0.99159998;stroke-linejoin:round" /><path
     id="path3510_1_"
     inkscape:connector-curvature="0"
     d="m 333.44089,513.89513 -0.7,0.7 1.9,-0.7 -1.9,-0.7 z"
     style="stroke:#000000" /><path
     id="path3506_5_"
     inkscape:connector-curvature="0"
     d="m 276.44089,513.89513 h 58.1"
     style="stroke:#000000;stroke-width:0.99159998;stroke-linejoin:round" /><path
     id="path3510_2_"
     inkscape:connector-curvature="0"
     d="m 332.84089,565.29513 -0.7,0.7 1.9,-0.7 -1.9,-0.7 z"
     style="stroke:#000000" /><path
     id="svg_126-3_1_"
     inkscape:connector-curvature="0"
     d="m 153.94089,565.69513 h 19.74632"
     style="stroke:#000000;stroke-width:0.57766545;stroke-linejoin:round" /><path
     id="svg_127-3_1_"
     inkscape:connector-curvature="0"
     d="m 171.04089,565.29513 -0.7,0.7 1.9,-0.7 -1.9,-0.7 z"
     style="stroke:#000000" /><a
     xlink:href="../api_docs/cloud/services.html#routerservice"
     id="svg_38-3_1_"
     transform="translate(-142.15911,136.27478)"><path
       id="svg_58-7_1_"
       inkscape:connector-curvature="0"
       d="m 313.5,422.3 v 0 c 0,-1.9 1.6,-3.5 3.5,-3.5 h 96.1 c 0.9,0 1.8,0.3 2.4,1 0.6,0.6 1,1.5 1,2.4 V 436 c 0,1.9 -1.6,3.5 -3.5,3.5 h -96 v 0 c -1.9,0 -3.5,-1.6 -3.5,-3.5 z"
       style="fill:#ffe599;stroke:#000000" /><text
       id="e32_5-8_1_"
       transform="translate(345.3419,433.2722)"
       font-size="11.2402"
       style="font-size:11.24020004px;line-height:0%;font-family:ArialMT">routers</text>
</a><a
     xlink:href="../api_docs/cloud/resources.html#router"
     id="a3500_2_"
     transform="translate(124.27193,135.68572)"><path
       id="path3502_3_"
       inkscape:connector-curvature="0"
       d="m 211.1,422.5 v 0 c 0,-1.9 1.6,-3.5 3.5,-3.5 h 96.1 c 0.9,0 1.8,0.3 2.4,1 0.6,0.6 1,1.5 1,2.4 v 13.8 c 0,1.9 -1.6,3.5 -3.5,3.5 h -96.2 v 0 c -1.9,0 -3.5,-1.6 -3.5,-3.5 z"
       style="fill:#b6d7a8;stroke:#000000" /><text
       id="text3504_2_"
       transform="translate(244.7258,433.3418)"
       font-size="11.2402"
       style="font-size:11.24020004px;line-height:0%;font-family:ArialMT">Router</text>
</a><path
     id="path3506_7_"
     inkscape:connector-curvature="0"
     d="m 275.84089,565.29513 h 58.1"
     style="stroke:#000000;stroke-width:0.99159998;stroke-linejoin:round" /><path
     id="path3506_3_"
     inkscape:connector-curvature="0"
     d="m 275.84089,565.29513 h 58.1"
     style="stroke:#000000;stroke-width:0.99159998;stroke-linejoin:round" /><path
     id="path3924_1_"
     inkscape:connector-type="polyline"
     inkscape:connector-curvature="0"
     d="m 63.04089,256.69513 29.7,-0.3"
     style="fill:none;stroke:#000000;stroke-width:0.92979997" /><path
     id="path3924_2_"
     inkscape:connector-type="polyline"
     inkscape:connector-curvature="0"
     d="m 63.04089,355.89513 29.7,-0.3"
     style="fill:none;stroke:#000000;stroke-width:0.92979997" /><path
     id="path3924_4_"
     inkscape:connector-type="polyline"
     inkscape:connector-curvature="0"
     d="m 63.04089,478.29513 29.7,-0.3"
     style="fill:none;stroke:#000000;stroke-width:0.92979997" /><path
     id="path3510_2_-8"
     inkscape:connector-curvature="0"
     d="m 333.05444,592.22897 -0.7,0.7 1.9,-0.7 -1.9,-0.7 z"
     style="stroke:#000000" /><path
     id="svg_126-3_1_-0"
     inkscape:connector-curvature="0"
     d="m 154.15444,592.62897 h 17.3"
     style="stroke:#000000;stroke-width:0.54070002;stroke-linejoin:round" /><path
     id="svg_127-3_1_-2"
     inkscape:connector-curvature="0"
     d="m 171.25444,592.22897 -0.7,0.7 1.9,-0.7 -1.9,-0.7 z"
     style="stroke:#000000" /><a
     transform="translate(-141.94556,163.20862)"
     id="svg_38-3_1_-4"
     xlink:href="/Applications/Inkscape.app/../api_docs/cloud/services.html#floatingipservice"><path
       id="svg_58-7_1_-8"
       inkscape:connector-curvature="0"
       d="m 313.5,422.3 v 0 c 0,-1.9 1.6,-3.5 3.5,-3.5 h 96.1 c 0.9,0 1.8,0.3 2.4,1 0.6,0.6 1,1.5 1,2.4 V 436 c 0,1.9 -1.6,3.5 -3.5,3.5 h -96 v 0 c -1.9,0 -3.5,-1.6 -3.5,-3.5 z"
       style="fill:#ffe599;stroke:#000000" /><text
       id="e32_5-8_1_-3"
       font-size="11.2402"
       style="font-size:11.24020004px;line-height:0%;font-family:ArialMT"
       x="335.34189"
       y="433.27219">floating_ips</text>
</a><a
     transform="translate(124.48548,162.61956)"
     id="a3500_2_-9"
     xlink:href="/Applications/Inkscape.app/../api_docs/cloud/resources.html#floatingip"><path
       id="path3502_3_-0"
       inkscape:connector-curvature="0"
       d="m 211.1,422.5 v 0 c 0,-1.9 1.6,-3.5 3.5,-3.5 h 96.1 c 0.9,0 1.8,0.3 2.4,1 0.6,0.6 1,1.5 1,2.4 v 13.8 c 0,1.9 -1.6,3.5 -3.5,3.5 h -96.2 v 0 c -1.9,0 -3.5,-1.6 -3.5,-3.5 z"
       style="fill:#b6d7a8;stroke:#000000" /><text
       id="text3504_2_-5"
       font-size="11.2402"
       style="font-size:11.24020004px;line-height:0%;font-family:ArialMT"
       x="236.7258"
       y="433.3418">FloatingIP</text>
</a><path
     id="path3506_7_-2"
     inkscape:connector-curvature="0"
     d="m 276.05444,592.22897 h 58.1"
     style="stroke:#000000;stroke-width:0.99159998;stroke-linejoin:round" /><path
     id="path3506_3_-2"
     inkscape:connector-curvature="0"
     d="m 276.05444,592.22897 h 58.1"
     style="stroke:#000000;stroke-width:0.99159998;stroke-linejoin:round" /><path
     id="path3510_2_-8-3"
     inkscape:connector-curvature="0"
     d="m 333.05444,620.22897 -0.7,0.7 1.9,-0.7 -1.9,-0.7 z"
     style="stroke:#000000" /><path
     id="svg_126-3_1_-0-7"
     inkscape:connector-curvature="0"
     d="m 154.15444,620.62897 h 17.3"
     style="stroke:#000000;stroke-width:0.54070002;stroke-linejoin:round" /><path
     id="svg_127-3_1_-2-9"
     inkscape:connector-curvature="0"
     d="m 171.25444,620.22897 -0.7,0.7 1.9,-0.7 -1.9,-0.7 z"
     style="stroke:#000000" /><a
     transform="translate(-141.94556,191.20862)"
     id="svg_38-3_1_-4-0"
     xlink:href="/Applications/Inkscape.app/../api_docs/cloud/services.html#gatewayservice"><path
       id="svg_58-7_1_-8-2"
       inkscape:connector-curvature="0"
       d="m 313.5,422.3 v 0 c 0,-1.9 1.6,-3.5 3.5,-3.5 h 96.1 c 0.9,0 1.8,0.3 2.4,1 0.6,0.6 1,1.5 1,2.4 V 436 c 0,1.9 -1.6,3.5 -3.5,3.5 h -96 v 0 c -1.9,0 -3.5,-1.6 -3.5,-3.5 z"
       style="fill:#ffe599;stroke:#000000" /><text
       id="e32_5-8_1_-3-3"
       font-size="11.2402"
       style="font-size:11.24020004px;line-height:0%;font-family:ArialMT"
       x="337.34189"
       y="433.27219">gateways</text>
</a><a
     transform="translate(124.48548,190.61956)"
     id="a3500_2_-9-9"
     xlink:href="/Applications/Inkscape.app/../api_docs/cloud/resources.html#internetgateway"><path
       id="path3502_3_-0-9"
       inkscape:connector-curvature="0"
       d="m 211.1,422.5 v 0 c 0,-1.9 1.6,-3.5 3.5,-3.5 h 96.1 c 0.9,0 1.8,0.3 2.4,1 0.6,0.6 1,1.5 1,2.4 v 13.8 c 0,1.9 -1.6,3.5 -3.5,3.5 h -96.2 v 0 c -1.9,0 -3.5,-1.6 -3.5,-3.5 z"
       style="fill:#b6d7a8;stroke:#000000" /><text
       id="text3504_2_-5-7"
       font-size="11.2402"
       style="font-size:11.24020004px;line-height:0%;font-family:ArialMT"
       x="222.7258"
       y="433.3418">InternetGateway</text>
</a><path
     id="path3506_7_-2-0"
     inkscape:connector-curvature="0"
     d="m 276.05444,620.22897 h 58.1"
     style="stroke:#000000;stroke-width:0.99159998;stroke-linejoin:round" /><path
     id="path3506_3_-2-3"
     inkscape:connector-curvature="0"
     d="m 276.05444,620.22897 h 58.1"
     style="stroke:#000000;stroke-width:0.99159998;stroke-linejoin:round" /><path
     id="path3924-6-7-8-2-8"
     inkscape:connector-type="polyline"
     inkscape:connector-curvature="0"
     d="m 154.23764,442.39528 18.1,-0.3"
     style="fill:none;stroke:#000000;stroke-width:0.73930001" /><a
     transform="translate(-4.88461,-47.98267)"
     id="svg_32-7"
     xlink:href="/Applications/Inkscape.app/../api_docs/cloud/services.html#bucketservice"><path
       id="svg_22-9"
       inkscape:connector-curvature="0"
       d="m 175.3,483.7 v 0 c 0,-1.9 1.6,-3.5 3.5,-3.5 h 96.1 c 0.9,0 1.8,0.3 2.4,1 0.6,0.6 1,1.5 1,2.4 v 13.8 c 0,1.9 -1.6,3.5 -3.5,3.5 h -96.2 v 0 c -1.9,0 -3.5,-1.6 -3.5,-3.5 z"
       style="fill:#ffe599;stroke:#000000" /><text
       id="e7_texte-3"
       font-size="11.2402"
       style="font-size:11.24020004px;line-height:0%;font-family:ArialMT"
       x="205.1515"
       y="494.61041">buckets</text>
</a><path
     id="path3922-6-4-3-6"
     inkscape:connector-type="polyline"
     inkscape:connector-curvature="0"
     d="m 153.96815,494.7355 -0.0545,126.16358"
     style="fill:none;stroke:#000000;stroke-width:1.22430205" /></svg>