<?xml version="1.0" encoding="UTF-8" standalone="no"?>
<svg
   xmlns:dc="http://purl.org/dc/elements/1.1/"
   xmlns:cc="http://creativecommons.org/ns#"
   xmlns:rdf="http://www.w3.org/1999/02/22-rdf-syntax-ns#"
   xmlns:svg="http://www.w3.org/2000/svg"
   xmlns="http://www.w3.org/2000/svg"
   xmlns:xlink="http://www.w3.org/1999/xlink"
   xmlns:sodipodi="http://sodipodi.sourceforge.net/DTD/sodipodi-0.dtd"
   xmlns:inkscape="http://www.inkscape.org/namespaces/inkscape"
   viewBox="0 0 1000 700"
   width="700"
   height="500"
   preserveAspectRatio="xMinYMin meet"
   id="svg3515"
   version="1.1"
   inkscape:version="0.91 r13725"
   sodipodi:docname="object_relationships_detailed.svg">
  <metadata
     id="metadata3654">
    <rdf:RDF>
      <cc:Work
         rdf:about="">
        <dc:format>image/svg+xml</dc:format>
        <dc:type
           rdf:resource="http://purl.org/dc/dcmitype/StillImage" />
        <dc:title></dc:title>
      </cc:Work>
    </rdf:RDF>
  </metadata>
  <defs
     id="defs3652" />
  <sodipodi:namedview
     pagecolor="#ffffff"
     bordercolor="#666666"
     borderopacity="1"
     objecttolerance="10"
     gridtolerance="10"
     guidetolerance="10"
     inkscape:pageopacity="0"
     inkscape:pageshadow="2"
     inkscape:window-width="2560"
     inkscape:window-height="1391"
     id="namedview3650"
     showgrid="false"
     inkscape:snap-bbox="true"
     inkscape:bbox-paths="true"
     inkscape:bbox-nodes="true"
     inkscape:snap-bbox-edge-midpoints="true"
     inkscape:snap-bbox-midpoints="true"
     inkscape:snap-nodes="false"
     inkscape:snap-others="false"
     inkscape:zoom="2.4559942"
     inkscape:cx="414.96722"
     inkscape:cy="522.00451"
     inkscape:window-x="0"
     inkscape:window-y="1"
     inkscape:window-maximized="1"
     inkscape:current-layer="svg3515" />
  <clipPath
     id="p.0">
    <path
       d="m0,0l960,0l0,720l-960,0l0,-720z"
       clip-rule="nonzero"
       id="svg_1" />
  </clipPath>
  <path
     style="fill:#b6d7a8;fill-rule:nonzero"
     inkscape:connector-curvature="0"
     id="svg_46"
     d="m 554.79394,175.07382 0,0 c 0,-3.11658 2.52649,-5.64305 5.64307,-5.64305 l 156.99738,0 c 1.49664,0 2.93194,0.59453 3.99023,1.65282 1.05829,1.05827 1.65283,2.4936 1.65283,3.99023 l 0,22.57218 c 0,3.11656 -2.52649,5.64303 -5.64306,5.64303 l -156.99738,0 0,0 c -3.11658,0 -5.64307,-2.52647 -5.64307,-5.64303 l 0,-22.57218 z" />
  <path
     style="fill:#000000;fill-rule:nonzero"
     inkscape:connector-curvature="0"
     id="svg_48"
     d="m 610.19348,192.21991 0,-11.45313 1.51563,0 0,11.45313 -1.51563,0 z m 4.00781,0 0,-8.29688 1.26563,0 0,1.17188 q 0.90625,-1.35938 2.64062,-1.35938 0.75,0 1.375,0.26563 0.625,0.26562 0.9375,0.70312 0.3125,0.4375 0.4375,1.04688 0.0781,0.39062 0.0781,1.35937 l 0,5.10938 -1.40625,0 0,-5.04688 q 0,-0.85937 -0.17188,-1.28125 -0.15625,-0.4375 -0.57812,-0.6875 -0.40625,-0.25 -0.96875,-0.25 -0.90625,0 -1.5625,0.57813 -0.64063,0.5625 -0.64063,2.15625 l 0,4.53125 -1.40625,0 z m 8.33594,-2.48438 1.39063,-0.21875 q 0.10937,0.84375 0.64062,1.29688 0.54688,0.4375 1.5,0.4375 0.96875,0 1.4375,-0.39063 0.46875,-0.40625 0.46875,-0.9375 0,-0.46875 -0.40625,-0.75 -0.29687,-0.1875 -1.4375,-0.46875 -1.54687,-0.39062 -2.15625,-0.67187 -0.59375,-0.29688 -0.90625,-0.79688 -0.29687,-0.5 -0.29687,-1.10937 0,-0.5625 0.25,-1.03125 0.25,-0.46875 0.6875,-0.78125 0.32812,-0.25 0.89062,-0.40625 0.57813,-0.17188 1.21875,-0.17188 0.98438,0 1.71875,0.28125 0.73438,0.28125 1.07813,0.76563 0.35937,0.46875 0.5,1.28125 l -1.375,0.1875 q -0.0937,-0.64063 -0.54688,-1 -0.45312,-0.35938 -1.26562,-0.35938 -0.96875,0 -1.39063,0.32813 -0.40625,0.3125 -0.40625,0.73437 0,0.28125 0.17188,0.5 0.17187,0.21875 0.53125,0.375 0.21875,0.0781 1.25,0.35938 1.48437,0.39062 2.07812,0.65625 0.59375,0.25 0.92188,0.73437 0.34375,0.48438 0.34375,1.20313 0,0.70312 -0.42188,1.32812 -0.40625,0.60938 -1.1875,0.95313 -0.76562,0.34375 -1.73437,0.34375 -1.625,0 -2.46875,-0.67188 -0.84375,-0.67187 -1.07813,-2 z m 11.625,1.21875 0.20313,1.25 q -0.59375,0.125 -1.0625,0.125 -0.76563,0 -1.1875,-0.23437 -0.42188,-0.25 -0.59375,-0.64063 -0.17188,-0.40625 -0.17188,-1.67187 l 0,-4.76563 -1.03125,0 0,-1.09375 1.03125,0 0,-2.0625 1.40625,-0.84375 0,2.90625 1.40625,0 0,1.09375 -1.40625,0 0,4.84375 q 0,0.60938 0.0625,0.78125 0.0781,0.17188 0.25,0.28125 0.17188,0.0937 0.48438,0.0937 0.23437,0 0.60937,-0.0625 z m 6.78907,0.23438 q -0.78125,0.67187 -1.5,0.95312 -0.71875,0.26563 -1.54688,0.26563 -1.375,0 -2.10937,-0.67188 -0.73438,-0.67187 -0.73438,-1.70312 0,-0.60938 0.28125,-1.10938 0.28125,-0.51562 0.71875,-0.8125 0.45313,-0.3125 1.01563,-0.46875 0.42187,-0.10937 1.25,-0.20312 1.70312,-0.20313 2.51562,-0.48438 0,-0.29687 0,-0.375 0,-0.85937 -0.39062,-1.20312 -0.54688,-0.48438 -1.60938,-0.48438 -0.98437,0 -1.46875,0.35938 -0.46875,0.34375 -0.6875,1.21875 l -1.375,-0.1875 q 0.1875,-0.875 0.60938,-1.42188 0.4375,-0.54687 1.25,-0.82812 0.8125,-0.29688 1.875,-0.29688 1.0625,0 1.71875,0.25 0.67187,0.25 0.98437,0.625 0.3125,0.375 0.4375,0.95313 0.0781,0.35937 0.0781,1.29687 l 0,1.875 q 0,1.96875 0.0781,2.48438 0.0937,0.51562 0.35938,1 l -1.46875,0 q -0.21875,-0.4375 -0.28125,-1.03125 z m -0.10938,-3.14063 q -0.76562,0.3125 -2.29687,0.53125 -0.875,0.125 -1.23438,0.28125 -0.35937,0.15625 -0.5625,0.46875 -0.1875,0.29688 -0.1875,0.65625 0,0.5625 0.42188,0.9375 0.4375,0.375 1.25,0.375 0.8125,0 1.4375,-0.34375 0.64062,-0.35937 0.9375,-0.98437 0.23437,-0.46875 0.23437,-1.40625 l 0,-0.51563 z m 3.60156,4.17188 0,-8.29688 1.26563,0 0,1.17188 q 0.90625,-1.35938 2.64062,-1.35938 0.75,0 1.375,0.26563 0.625,0.26562 0.9375,0.70312 0.3125,0.4375 0.4375,1.04688 0.0781,0.39062 0.0781,1.35937 l 0,5.10938 -1.40625,0 0,-5.04688 q 0,-0.85937 -0.17188,-1.28125 -0.15625,-0.4375 -0.57812,-0.6875 -0.40625,-0.25 -0.96875,-0.25 -0.90625,0 -1.5625,0.57813 -0.64063,0.5625 -0.64063,2.15625 l 0,4.53125 -1.40625,0 z m 14.30469,-3.04688 1.39063,0.1875 q -0.23438,1.42188 -1.17188,2.23438 -0.92187,0.8125 -2.28125,0.8125 -1.70312,0 -2.75,-1.10938 -1.03125,-1.125 -1.03125,-3.20312 0,-1.34375 0.4375,-2.34375 0.45313,-1.01563 1.35938,-1.51563 0.92187,-0.5 1.98437,-0.5 1.35938,0 2.21875,0.6875 0.85938,0.67188 1.09375,1.9375 l -1.35937,0.20313 q -0.20313,-0.82813 -0.70313,-1.25 -0.48437,-0.42188 -1.1875,-0.42188 -1.0625,0 -1.73437,0.76563 -0.65625,0.75 -0.65625,2.40625 0,1.67187 0.64062,2.4375 0.64063,0.75 1.67188,0.75 0.82812,0 1.375,-0.5 0.5625,-0.51563 0.70312,-1.57813 z m 8.26563,0.375 1.45312,0.17188 q -0.34375,1.28125 -1.28125,1.98437 -0.92187,0.70313 -2.35937,0.70313 -1.82813,0 -2.89063,-1.125 -1.0625,-1.125 -1.0625,-3.14063 0,-2.09375 1.07813,-3.25 1.07812,-1.15625 2.79687,-1.15625 1.65625,0 2.70313,1.14063 1.0625,1.125 1.0625,3.17187 0,0.125 0,0.375 l -6.1875,0 q 0.0781,1.375 0.76562,2.10938 0.70313,0.71875 1.73438,0.71875 0.78125,0 1.32812,-0.40625 0.54688,-0.40625 0.85938,-1.29688 z m -4.60938,-2.28125 4.625,0 q -0.0937,-1.04687 -0.53125,-1.5625 -0.67187,-0.8125 -1.73437,-0.8125 -0.96875,0 -1.64063,0.65625 -0.65625,0.64063 -0.71875,1.71875 z" />
  <path
     style="fill:#000000;fill-opacity:0;fill-rule:nonzero"
     inkscape:connector-curvature="0"
     id="svg_102"
     d="m 454.68765,146.59842 100.09452,0" />
  <path
     style="fill-rule:evenodd;stroke:#000000;stroke-linejoin:round"
     inkscape:connector-curvature="0"
     id="svg_103"
     d="m 454.68765,146.59842 96.66739,0" />
  <path
     style="fill:#000000;fill-rule:evenodd;stroke:#000000"
     inkscape:connector-curvature="0"
     id="svg_104"
     d="m 551.35504,146.59842 -1.12457,1.12457 3.08978,-1.12457 -3.08978,-1.12459 1.12457,1.12459 z" />
  <path
     style="fill:#000000;fill-opacity:0;fill-rule:nonzero"
     inkscape:connector-curvature="0"
     id="svg_107"
     d="m 454.68765,186.35905 100.09452,0" />
  <path
     style="fill-rule:evenodd;stroke:#000000;stroke-linejoin:round"
     inkscape:connector-curvature="0"
     id="svg_108"
     d="m 454.68765,186.35904 96.66739,0" />
  <path
     style="fill:#000000;fill-rule:evenodd;stroke:#000000"
     inkscape:connector-curvature="0"
     id="svg_109"
     d="m 551.35504,186.35904 -1.12457,1.12459 3.08978,-1.12459 -3.08978,-1.12457 1.12457,1.12457 z" />
  <path
     style="fill:#000000;fill-opacity:0;fill-rule:nonzero"
     inkscape:connector-curvature="0"
     id="svg_110"
     d="m 454.68765,226.1214 100.09452,0" />
  <path
     style="fill-rule:evenodd;stroke:#000000;stroke-linejoin:round"
     inkscape:connector-curvature="0"
     id="svg_111"
     d="m 454.68765,226.12138 96.66739,0" />
  <path
     style="fill:#000000;fill-rule:evenodd;stroke:#000000"
     inkscape:connector-curvature="0"
     id="svg_112"
     d="m 551.35504,226.12138 -1.12457,1.12459 3.08978,-1.12459 -3.08978,-1.12457 1.12457,1.12457 z" />
  <path
     style="fill:#000000;fill-opacity:0;fill-rule:nonzero"
     inkscape:connector-curvature="0"
     id="svg_113"
     d="m 454.68765,265.8829 100.09452,0" />
  <path
     style="fill-rule:evenodd;stroke:#000000;stroke-linejoin:round"
     inkscape:connector-curvature="0"
     id="svg_114"
     d="m 454.68765,265.8829 96.66739,0" />
  <path
     style="fill:#000000;fill-rule:evenodd;stroke:#000000"
     inkscape:connector-curvature="0"
     id="svg_115"
     d="m 551.35504,265.8829 -1.12457,1.12458 3.08978,-1.12458 -3.08978,-1.1246 1.12457,1.1246 z" />
  <path
     style="fill:#000000;fill-opacity:0;fill-rule:nonzero"
     inkscape:connector-curvature="0"
     id="svg_116"
     d="m 454.68765,380.18689 100.09452,0" />
  <path
     style="fill-rule:evenodd;stroke:#000000;stroke-linejoin:round"
     inkscape:connector-curvature="0"
     id="svg_117"
     d="m 454.68765,380.18689 96.66739,0" />
  <path
     style="fill:#000000;fill-rule:evenodd;stroke:#000000"
     inkscape:connector-curvature="0"
     id="svg_118"
     d="m 551.35504,380.18689 -1.12457,1.12457 3.08978,-1.12457 -3.08978,-1.1246 1.12457,1.1246 z" />
  <path
     style="fill:#000000;fill-opacity:0;fill-rule:nonzero"
     inkscape:connector-curvature="0"
     id="svg_119"
     d="m 454.68765,420.94882 100.09452,0" />
  <path
     style="fill-rule:evenodd;stroke:#000000;stroke-linejoin:round"
     inkscape:connector-curvature="0"
     id="svg_120"
     d="m 454.68765,420.94882 96.66739,0" />
  <path
     style="fill:#000000;fill-rule:evenodd;stroke:#000000"
     inkscape:connector-curvature="0"
     id="svg_121"
     d="m 551.35504,420.94882 -1.12457,1.12457 3.08978,-1.12457 -3.08978,-1.12457 1.12457,1.12457 z" />
  <path
     style="fill:#000000;fill-opacity:0;fill-rule:nonzero"
     inkscape:connector-curvature="0"
     id="svg_122"
     d="m 454.68765,540.76074 100.09452,0" />
  <path
     style="fill-rule:evenodd;stroke:#000000;stroke-linejoin:round"
     inkscape:connector-curvature="0"
     id="svg_123"
     d="m 454.68765,540.7608 96.66739,0" />
  <path
     style="fill:#000000;fill-rule:evenodd;stroke:#000000"
     inkscape:connector-curvature="0"
     id="svg_124"
     d="m 551.35504,540.7608 -1.12457,1.12458 3.08978,-1.12458 -3.08978,-1.12457 1.12457,1.12457 z" />
  <path
     style="fill:#000000;fill-opacity:0;fill-rule:nonzero"
     inkscape:connector-curvature="0"
     id="svg_125"
     d="m 454.68765,583.19806 100.09452,0" />
  <path
     style="fill-rule:evenodd;stroke:#000000;stroke-linejoin:round"
     inkscape:connector-curvature="0"
     id="svg_126"
     d="m 454.68765,583.19806 96.66739,0" />
  <path
     style="fill:#000000;fill-rule:evenodd;stroke:#000000"
     inkscape:connector-curvature="0"
     id="svg_127"
     d="m 551.35504,583.19806 -1.12457,1.12463 3.08978,-1.12463 -3.08978,-1.12457 1.12457,1.12457 z" />
  <path
     style="fill:#000000;fill-opacity:0;fill-rule:nonzero"
     inkscape:connector-curvature="0"
     id="svg_128"
     d="m 454.68765,692.85571 100.09452,0" />
  <path
     style="fill:#000000;fill-rule:evenodd;stroke:#000000;stroke-linejoin:round"
     inkscape:connector-curvature="0"
     id="svg_129"
     d="m 354.18765,641.85571 96.66739,0" />
  <path
     style="fill:#000000;fill-rule:evenodd;stroke:#000000"
     inkscape:connector-curvature="0"
     id="svg_130"
     d="m 452.35504,641.85571 -1.12457,1.12458 3.08978,-1.12458 -3.08978,-1.12457 1.12457,1.12457 z" />
  <path
     style="fill:#000000;fill-opacity:0;fill-rule:nonzero"
     inkscape:connector-curvature="0"
     id="svg_147"
     d="m 723.07745,265.8829 56.97638,0" />
  <path
     style="fill-rule:evenodd;stroke:#000000;stroke-linejoin:round"
     inkscape:connector-curvature="0"
     id="svg_148"
     d="m 723.07745,265.8829 50.97638,0" />
  <path
     style="fill:#000000;fill-rule:evenodd;stroke:#000000"
     inkscape:connector-curvature="0"
     id="svg_149"
     d="m 774.05383,267.53464 4.53809,-1.65174 -4.53809,-1.65173 0,3.30347 z" />
  <path
     style="fill:#000000;fill-opacity:0;fill-rule:nonzero"
     inkscape:connector-curvature="0"
     id="svg_150"
     d="m 723.07745,420.94882 56.97638,0" />
  <path
     style="fill-rule:evenodd;stroke:#000000;stroke-linejoin:round"
     inkscape:connector-curvature="0"
     id="svg_151"
     d="m 723.07745,420.94882 50.97638,0" />
  <path
     style="fill:#000000;fill-rule:evenodd;stroke:#000000"
     inkscape:connector-curvature="0"
     id="svg_152"
     d="m 774.05383,422.60055 4.53809,-1.65173 -4.53809,-1.65173 0,3.30347 z" />
  <path
     style="fill:#000000;fill-opacity:0;fill-rule:nonzero"
     inkscape:connector-curvature="0"
     id="svg_153"
     d="m 723.08923,692.85571 56.97638,0" />
  <path
     inkscape:connector-curvature="0"
     id="svg_154"
     d="m 624.99042,641.85571 50.97638,0"
     style="fill:#000000;fill-rule:evenodd;stroke:#000000;stroke-linejoin:round" />
  <path
     style="fill:#000000;fill-rule:evenodd;stroke:#000000"
     inkscape:connector-curvature="0"
     id="svg_155"
     d="m 675.06561,643.50745 4.53809,-1.65174 -4.53809,-1.65173 0,3.30347 z" />
  <path
     style="fill:#b6d7a8;fill-rule:nonzero"
     inkscape:connector-curvature="0"
     id="e22_46"
     d="m 554.79394,175.07382 0,0 c 0,-3.11658 2.52649,-5.64305 5.64307,-5.64305 l 156.99738,0 c 1.49664,0 2.93194,0.59453 3.99023,1.65282 1.05829,1.05827 1.65283,2.4936 1.65283,3.99023 l 0,22.57218 c 0,3.11656 -2.52649,5.64303 -5.64306,5.64303 l -156.99738,0 0,0 c -3.11658,0 -5.64307,-2.52647 -5.64307,-5.64303 l 0,-22.57218 z" />
  <text
     style="font-size:16.07049942px;font-family:Arial;fill:#000000"
     font-size="16.0705px"
     id="e9_texte"
     y="141.577"
     x="459.401">.list() returns</text>
  <text
     style="font-size:16.07049942px;font-family:Arial;fill:#000000"
     font-size="16.0705px"
     id="e10_texte"
     y="181.754"
     x="458.25299">.list() returns</text>
  <text
     style="font-size:16.07049942px;font-family:Arial;fill:#000000"
     font-size="16.0705px"
     id="e11_texte"
     y="221.356"
     x="459.401">.list() returns</text>
  <text
     style="font-size:16.07049942px;font-family:Arial;fill:#000000"
     font-size="16.0705px"
     id="e12_texte"
     y="262.67999"
     x="458.25299">.list() returns</text>
  <text
     style="font-size:16.07049942px;font-family:Arial;fill:#000000"
     font-size="16.0705px"
     id="e13_texte"
     y="375.74701"
     x="455.957">.list() returns</text>
  <text
     style="font-size:16.07049942px;font-family:Arial;fill:#000000"
     font-size="16.0705px"
     id="e14_texte"
     y="417.07101"
     x="458.25299">.list() returns</text>
  <text
     style="font-size:16.07049942px;font-family:Arial;fill:#000000"
     font-size="16.0705px"
     id="e15_texte"
     y="537.026"
     x="461.69699">.list() returns</text>
  <text
     style="font-size:16.07049942px;font-family:Arial;fill:#000000"
     font-size="16.0705px"
     id="e16_texte"
     y="579.49799"
     x="457.10501">.list() returns</text>
  <text
     style="font-size:16.07049942px;font-family:Arial;fill:#000000"
     font-size="16.0705px"
     id="e17_texte"
     y="638.12201"
     x="358.10501">.list() returns</text>
  <text
     style="font-size:11.47889996px;font-family:Arial;fill:#000000"
     font-size="11.4789px"
     id="e18_texte"
     y="262.10501"
     x="733.17297">.zones</text>
  <text
     style="font-size:11.47889996px;font-family:Arial;fill:#000000"
     font-size="11.4789px"
     id="e19_texte"
     y="417.07101"
     x="733.17401">.rules</text>
  <text
     style="font-size:11.47889996px;font-family:Arial;fill:#000000"
     font-size="11.4789px"
     id="e20_texte"
     y="637.54797"
     x="627.85999">.objects</text>
  <a
     xlink:href="../api_docs/cloud/providers.html#cloudprovider"
     target="_parent"
     id="svg_14">
    <path
       style="fill:#a4c2f4;fill-rule:nonzero;stroke:#000000"
       inkscape:connector-curvature="0"
       id="svg_4"
       d="m 45.06562,13.08136 0,0 c 0,-4.79226 3.884899,-8.67716 8.677158,-8.67716 l 112.818892,0 c 2.30134,0 4.50841,0.914199 6.13569,2.54148 1.62728,1.627289 2.54149,3.83436 2.54149,6.13568 l 0,34.708672 c 0,4.792259 -3.88491,8.677158 -8.67717,8.677158 l -112.818902,0 0,0 c -4.792259,0 -8.677158,-3.884899 -8.677158,-8.677158 l 0,-34.708672 z" />
    <text
       style="font-size:24px;font-family:Sans-serif;text-anchor:middle;fill:#000000;stroke-width:0;stroke-dasharray:none"
       xml:space="preserve"
       font-size="24"
       id="svg_162"
       y="36.935696"
       x="110.15223"
       stroke-linecap="null"
       stroke-linejoin="null">provider</text>
  </a>
  <a
     xlink:href="../api_docs/cloud/services.html#computeservice"
     target="_parent"
     id="svg_15">
    <path
       style="fill:#ffe599;fill-rule:nonzero;stroke:#000000"
       inkscape:connector-curvature="0"
       id="svg_7"
       d="m 159.19948,71.716537 0,0 c 0,-4.792267 3.8849,-8.677166 8.67717,-8.677166 l 176.94488,0 c 2.30133,0 4.50839,0.9142 6.13568,2.541485 1.62729,1.627281 2.54148,3.834351 2.54148,6.135681 l 0,34.708653 c 0,4.79227 -3.88489,8.67717 -8.67716,8.67717 l -176.94488,0 c -4.79227,0 -8.67717,-3.8849 -8.67717,-8.67717 l 0,-34.708653 z" />
    <text
       style="font-size:20.66209984px;font-family:Sans-serif;text-anchor:middle;fill:#000000;stroke-width:0;stroke-dasharray:none"
       stroke-linejoin="null"
       stroke-linecap="null"
       x="256.34909"
       y="94.570869"
       id="svg_3"
       font-size="20.6621px"
       xml:space="preserve">compute</text>
  </a>
  <a
     xlink:href="../api_docs/cloud/services.html#securityservice"
     target="_parent"
     id="svg_17">
    <path
       style="fill:#ffe599;fill-rule:nonzero;stroke:#000000"
       inkscape:connector-curvature="0"
       d="m 159.19948,304.414 0,0 c 0,-4.79227 3.88489,-8.67715 8.67715,-8.67715 l 176.94503,0 c 2.30133,0 4.50836,0.91418 6.13568,2.54147 1.62725,1.62729 2.54144,3.83435 2.54144,6.13568 l 0,34.70871 c 0,4.79227 -3.88489,8.67712 -8.67712,8.67712 l -176.94503,0 c -4.79226,0 -8.67715,-3.88488 -8.67715,-8.67712 l 0,-34.70871 z"
       id="svg_10" />
    <text
       style="font-size:20.66209984px;font-family:Arial;fill:#000000"
       font-size="20.6621px"
       id="e1_texte"
       y="328.76834"
       x="220.7408">security</text>
  </a>
  <a
     xlink:href="../api_docs/cloud/services.html#blockstoreservice"
     target="_parent"
     id="svg_18">
    <path
       style="fill:#ffe599;fill-rule:nonzero;stroke:#000000"
       inkscape:connector-curvature="0"
       id="svg_13"
       d="m 159.19948,466.38321 0,0 c 0,-4.79227 3.8849,-8.67719 8.67717,-8.67719 l 176.94488,0 c 2.30133,0 4.50839,0.91422 6.13568,2.54151 1.62729,1.62729 2.54148,3.83435 2.54148,6.13568 l 0,34.70865 c 0,4.79226 -3.88489,8.67718 -8.67716,8.67718 l -176.94488,0 c -4.79227,0 -8.67717,-3.88492 -8.67717,-8.67718 l 0,-34.70865 z" />
    <text
       style="font-size:20.66209984px;font-family:Arial;fill:#000000"
       font-size="20.6621px"
       id="e2_texte"
       y="490.73755"
       x="203.49075">block_store</text>
  </a>
  <a
     xlink:href="../api_docs/cloud/services.html#objectstoreservice"
     target="_parent"
     id="svg_20">
    <path
       style="fill:#ffe599;fill-rule:nonzero;stroke:#000000"
       inkscape:connector-curvature="0"
       id="svg_16"
       d="m 159.19948,619.97375 0,0 c 0,-4.79229 3.8849,-8.67718 8.67717,-8.67718 l 176.94488,0 c 2.30133,0 4.50839,0.91425 6.13568,2.5415 1.62729,1.62726 2.54148,3.83435 2.54148,6.13568 l 0,34.70868 c 0,4.79224 -3.88489,8.67713 -8.67716,8.67713 l -176.94488,0 c -4.79227,0 -8.67717,-3.88489 -8.67717,-8.67713 l 0,-34.70868 z" />
    <text
       style="font-size:20.66209984px;font-family:Arial;fill:#000000"
       font-size="20.6621px"
       id="e5_texte"
       y="644.32806"
       x="200.03242">object_store</text>
  </a>
  <a
     xlink:href="../api_docs/cloud/services.html#imageservice"
     target="_parent"
     id="svg_21">
    <path
       style="fill:#ffe599;fill-rule:nonzero;stroke:#000000"
       inkscape:connector-curvature="0"
       id="svg_31"
       d="m 286.4042,135.31232 0,0 c 0,-3.11656 2.52646,-5.64304 5.64304,-5.64304 l 156.99738,0 c 1.49664,0 2.93197,0.59453 3.99023,1.6528 1.05829,1.05829 1.6528,2.49361 1.6528,3.99024 l 0,22.57219 c 0,3.11656 -2.52646,5.64303 -5.64303,5.64303 l -156.99738,0 0,0 c -3.11658,0 -5.64304,-2.52647 -5.64304,-5.64303 l 0,-22.57219 z" />
    <text
       style="font-size:18.36630058px;font-family:Arial;text-anchor:middle;fill:#000000;stroke-width:0;stroke-dasharray:none"
       stroke-linejoin="null"
       stroke-linecap="null"
       x="370.54593"
       y="153.09842"
       id="svg_5"
       font-size="18.3663px"
       xml:space="preserve">images</text>
  </a>
  <a
     xlink:href="../api_docs/cloud/services.html#instancetypesservice"
     target="_parent"
     id="svg_23">
    <path
       style="fill:#ffe599;fill-rule:nonzero;stroke:#000000"
       inkscape:connector-curvature="0"
       id="svg_34"
       d="m 286.4042,175.07297 0,0 c 0,-3.11658 2.52646,-5.64305 5.64304,-5.64305 l 156.99738,0 c 1.49664,0 2.93197,0.59452 3.99023,1.65281 1.05829,1.05828 1.6528,2.49361 1.6528,3.99024 l 0,22.57217 c 0,3.11656 -2.52646,5.64305 -5.64303,5.64305 l -156.99738,0 0,0 c -3.11658,0 -5.64304,-2.52649 -5.64304,-5.64305 l 0,-22.57217 z" />
    <text
       style="font-size:18.36630058px;font-family:Sans-serif;text-anchor:middle;fill:#000000;stroke-width:0;stroke-dasharray:none"
       stroke-linejoin="null"
       stroke-linecap="null"
       x="370.54593"
       y="191.35905"
       id="svg_6"
       font-size="18.3663px"
       xml:space="preserve">instance_types</text>
  </a>
  <a
     xlink:href="../api_docs/cloud/services.html#instanceservice"
     target="_parent"
     id="svg_24">
    <path
       style="fill:#ffe599;fill-rule:nonzero;stroke:#000000"
       inkscape:connector-curvature="0"
       id="svg_37"
       d="m 286.4042,214.83531 0,0 c 0,-3.11656 2.52646,-5.64305 5.64304,-5.64305 l 156.99738,0 c 1.49664,0 2.93197,0.59454 3.99023,1.65282 1.05829,1.05827 1.6528,2.4936 1.6528,3.99023 l 0,22.57218 c 0,3.11657 -2.52646,5.64305 -5.64303,5.64305 l -156.99738,0 0,0 c -3.11658,0 -5.64304,-2.52648 -5.64304,-5.64305 l 0,-22.57218 z" />
    <text
       style="font-size:18.36630058px;font-family:Sans-serif;text-anchor:middle;fill:#000000;stroke-width:0;stroke-dasharray:none"
       stroke-linejoin="null"
       stroke-linecap="null"
       x="370.54593"
       y="231.1214"
       id="svg_8"
       font-size="18.3663px"
       xml:space="preserve">instances</text>
  </a>
  <a
     xlink:href="../api_docs/cloud/services.html#regionservice"
     target="_parent"
     id="svg_26">
    <path
       style="fill:#ffe599;fill-rule:nonzero;stroke:#000000"
       inkscape:connector-curvature="0"
       id="svg_40"
       d="m 286.4042,254.5968 0,0 c 0,-3.11656 2.52646,-5.64303 5.64304,-5.64303 l 156.99738,0 c 1.49664,0 2.93197,0.59452 3.99023,1.6528 1.05829,1.05827 1.6528,2.4936 1.6528,3.99023 l 0,22.57218 c 0,3.11657 -2.52646,5.64303 -5.64303,5.64303 l -156.99738,0 0,0 c -3.11658,0 -5.64304,-2.52646 -5.64304,-5.64303 l 0,-22.57218 z" />
    <text
       style="font-size:18.36630058px;font-family:Sans-serif;text-anchor:middle;fill:#000000;stroke-width:0;stroke-dasharray:none"
       stroke-linejoin="null"
       stroke-linecap="null"
       x="370.54593"
       y="270.8829"
       id="svg_9"
       font-size="18.3663px"
       xml:space="preserve">regions</text>
  </a>
  <a
     xlink:href="../api_docs/cloud/services.html#keypairservice"
	target="_parent"
     id="svg_27">
    <path
       style="fill:#ffe599;fill-rule:nonzero;stroke:#000000"
       inkscape:connector-curvature="0"
       id="svg_28"
       d="m 286.4042,368.90079 0,0 c 0,-3.11655 2.52646,-5.64304 5.64304,-5.64304 l 156.99738,0 c 1.49664,0 2.93197,0.59454 3.99023,1.6528 1.05829,1.05829 1.6528,2.49362 1.6528,3.99024 l 0,22.5722 c 0,3.11655 -2.52646,5.64304 -5.64303,5.64304 l -156.99738,0 0,0 c -3.11658,0 -5.64304,-2.52649 -5.64304,-5.64304 l 0,-22.5722 z" />
    <text
       style="font-size:18.36630058px;font-family:Arial;fill:#000000"
       font-size="18.3663px"
       id="e3_texte"
       y="386.68689"
       x="336.34592">keypairs</text>
  </a>
  <a
     xlink:href="../api_docs/cloud/services.html#securitygroupservice"
     target="_parent"
     id="svg_29">
    <path
       style="fill:#ffe599;fill-rule:nonzero;stroke:#000000"
       inkscape:connector-curvature="0"
       id="svg_43"
       d="m 286.4042,409.66275 0,0 c 0,-3.11658 2.52646,-5.64307 5.64304,-5.64307 l 156.99738,0 c 1.49664,0 2.93197,0.59455 3.99023,1.65284 1.05829,1.05825 1.6528,2.49359 1.6528,3.99023 l 0,22.57217 c 0,3.11655 -2.52646,5.64304 -5.64303,5.64304 l -156.99738,0 0,0 c -3.11658,0 -5.64304,-2.52649 -5.64304,-5.64304 l 0,-22.57217 z" />
    <text
       style="font-size:18.36630058px;font-family:Arial;fill:#000000"
       font-size="18.3663px"
       id="e4_texte"
       y="427.44882"
       x="305.71259">security_groups</text>
  </a>
  <a
     xlink:href="../api_docs/cloud/services.html#volumeservice"
     target="_parent"
     id="svg_30">
    <path
       style="fill:#ffe599;fill-rule:nonzero;stroke:#000000"
       inkscape:connector-curvature="0"
       id="svg_19"
       d="m 286.4042,529.47467 0,0 c 0,-3.11658 2.52646,-5.64307 5.64304,-5.64307 l 156.99738,0 c 1.49664,0 2.93197,0.59455 3.99023,1.65284 1.05829,1.05828 1.6528,2.49359 1.6528,3.99023 l 0,22.5722 c 0,3.11658 -2.52646,5.64301 -5.64303,5.64301 l -156.99738,0 0,0 c -3.11658,0 -5.64304,-2.52643 -5.64304,-5.64301 l 0,-22.5722 z" />
    <text
       style="font-size:18.36630058px;font-family:Arial;fill:#000000"
       font-size="18.3663px"
       id="e6_texte"
       y="547.26074"
       x="336.34592">volumes</text>
  </a>
  <a
     xlink:href="../api_docs/cloud/services.html#snapshotservice"
     target="_parent"
     id="svg_32">
    <path
       style="fill:#ffe599;fill-rule:nonzero;stroke:#000000"
       inkscape:connector-curvature="0"
       id="svg_22"
       d="m 286.4042,571.91199 0,0 c 0,-3.11658 2.52646,-5.64301 5.64304,-5.64301 l 156.99738,0 c 1.49664,0 2.93197,0.59448 3.99023,1.65277 1.05829,1.05829 1.6528,2.49359 1.6528,3.99024 l 0,22.5722 c 0,3.11658 -2.52646,5.64301 -5.64303,5.64301 l -156.99738,0 0,0 c -3.11658,0 -5.64304,-2.52643 -5.64304,-5.64301 l 0,-22.5722 z" />
    <text
       style="font-size:18.36630058px;font-family:Arial;fill:#000000"
       font-size="18.3663px"
       id="e7_texte"
       y="589.69806"
       x="328.67926">snapshots</text>
  </a>
  <a
     xlink:href="../api_docs/cloud/resources.html#bucket"
     target="_parent"
     id="svg_25">
    <path
       style="fill:#b6d7a8;fill-rule:nonzero;stroke:#000000"
       inkscape:connector-curvature="0"
       id="svg_93"
       d="m 455.79394,630.56958 0,0 c 0,-3.11652 2.52649,-5.64301 5.64307,-5.64301 l 156.99738,0 c 1.49664,0 2.93194,0.59455 3.99023,1.65278 1.05829,1.05828 1.65283,2.49365 1.65283,3.99023 l 0,22.57221 c 0,3.11657 -2.52649,5.64306 -5.64306,5.64306 l -156.99738,0 0,0 c -3.11658,0 -5.64307,-2.52649 -5.64307,-5.64306 l 0,-22.57221 z" />
    <text
       style="font-size:18.36630058px;font-family:Arial;text-anchor:middle;fill:#000000;stroke-width:0;stroke-dasharray:none"
       stroke-linejoin="null"
       stroke-linecap="null"
       x="539.93567"
       y="648.35571"
       id="e33_5"
       font-size="18.3663px"
       xml:space="preserve">Bucket</text>
  </a>
  <a
     xlink:href="../api_docs/cloud/resources.html#containerobject"
     target="_parent"
     id="svg_33">
    <path
       style="fill:#b6d7a8;fill-rule:nonzero;stroke:#000000"
       inkscape:connector-curvature="0"
       id="svg_96"
       d="m 681.06561,630.56958 0,0 c 0,-3.11652 2.52649,-5.64301 5.64307,-5.64301 l 156.99737,0 c 1.49659,0 2.93195,0.59455 3.99024,1.65278 1.05829,1.05828 1.65277,2.49365 1.65277,3.99023 l 0,22.57221 c 0,3.11657 -2.52643,5.64306 -5.64301,5.64306 l -156.99737,0 0,0 c -3.11658,0 -5.64307,-2.52649 -5.64307,-5.64306 l 0,-22.57221 z" />
    <text
       style="font-size:18.36630058px;font-family:Arial;text-anchor:middle;fill:#000000;stroke-width:0;stroke-dasharray:none"
       stroke-linejoin="null"
       stroke-linecap="null"
       x="765.20734"
       y="648.35571"
       id="e34_5"
       font-size="18.3663px"
       xml:space="preserve">BucketObject</text>
  </a>
  <a
     xlink:href="../api_docs/cloud/resources.html#securitygrouprule"
     target="_parent"
     id="svg_35">
    <path
       style="fill:#b6d7a8;fill-rule:nonzero;stroke:#000000"
       inkscape:connector-curvature="0"
       id="svg_12"
       d="m 780.46631,408.83292 0,0 c 0,-3.11655 2.52649,-5.64304 5.64306,-5.64304 l 156.99732,0 c 1.49658,0 2.93201,0.59454 3.99023,1.6528 1.05835,1.05826 1.65283,2.49362 1.65283,3.99024 l 0,22.57217 c 0,3.11658 -2.52648,5.64304 -5.64306,5.64304 l -156.99732,0 0,0 c -3.11657,0 -5.64306,-2.52646 -5.64306,-5.64304 l 0,-22.57217 z" />
    <text
       style="font-size:18.36630058px;font-family:Arial;text-anchor:middle;fill:#000000;stroke-width:0;stroke-dasharray:none"
       stroke-linejoin="null"
       stroke-linecap="null"
       x="864.60803"
       y="426.61902"
       id="e36_5"
       font-size="18.3663px"
       xml:space="preserve">SecurityGroupRule</text>
  </a>
  <a
     xlink:href="../api_docs/cloud/resources.html#securitygroup"
     target="_parent"
     id="svg_36">
    <path
       style="fill:#b6d7a8;fill-rule:nonzero;stroke:#000000"
       inkscape:connector-curvature="0"
       id="svg_61"
       d="m 554.79394,409.66275 0,0 c 0,-3.11658 2.52649,-5.64307 5.64307,-5.64307 l 156.99738,0 c 1.49664,0 2.93194,0.59455 3.99023,1.65284 1.05829,1.05825 1.65283,2.49359 1.65283,3.99023 l 0,22.57217 c 0,3.11655 -2.52649,5.64304 -5.64306,5.64304 l -156.99738,0 0,0 c -3.11658,0 -5.64307,-2.52649 -5.64307,-5.64304 l 0,-22.57217 z" />
    <text
       style="font-size:18.36630058px;font-family:Arial;text-anchor:middle;fill:#000000;stroke-width:0;stroke-dasharray:none"
       stroke-linejoin="null"
       stroke-linecap="null"
       x="638.93573"
       y="427.44882"
       id="e30_5"
       font-size="18.3663px"
       xml:space="preserve">SecurityGroup</text>
  </a>
  <a
     xlink:href="../api_docs/cloud/resources.html#snapshot"
     target="_parent"
     id="svg_38">
    <path
       style="fill:#b6d7a8;fill-rule:nonzero;stroke:#000000"
       inkscape:connector-curvature="0"
       id="svg_58"
       d="m 554.79394,571.91199 0,0 c 0,-3.11658 2.52649,-5.64301 5.64307,-5.64301 l 156.99738,0 c 1.49664,0 2.93194,0.59448 3.99023,1.65277 1.05829,1.05829 1.65283,2.49359 1.65283,3.99024 l 0,22.5722 c 0,3.11658 -2.52649,5.64301 -5.64306,5.64301 l -156.99738,0 0,0 c -3.11658,0 -5.64307,-2.52643 -5.64307,-5.64301 l 0,-22.5722 z" />
    <text
       style="font-size:18.36630058px;font-family:Arial;text-anchor:middle;fill:#000000;stroke-width:0;stroke-dasharray:none"
       stroke-linejoin="null"
       stroke-linecap="null"
       x="638.93573"
       y="589.69812"
       id="e32_5"
       font-size="18.3663px"
       xml:space="preserve">Snapshot</text>
  </a>
  <a
     xlink:href="../api_docs/cloud/resources.html#volume"
     target="_parent"
     id="svg_39">
    <path
       style="fill:#b6d7a8;fill-rule:nonzero;stroke:#000000"
       inkscape:connector-curvature="0"
       id="svg_55"
       d="m 554.79394,529.47467 0,0 c 0,-3.11658 2.52649,-5.64307 5.64307,-5.64307 l 156.99738,0 c 1.49664,0 2.93194,0.59455 3.99023,1.65284 1.05829,1.05828 1.65283,2.49359 1.65283,3.99023 l 0,22.5722 c 0,3.11658 -2.52649,5.64301 -5.64306,5.64301 l -156.99738,0 0,0 c -3.11658,0 -5.64307,-2.52643 -5.64307,-5.64301 l 0,-22.5722 z" />
    <text
       style="font-size:18.36630058px;font-family:Arial;text-anchor:middle;fill:#000000;stroke-width:0;stroke-dasharray:none"
       stroke-linejoin="null"
       stroke-linecap="null"
       x="631.646"
       y="547.26074"
       id="e31_5"
       font-size="18.3663px"
       xml:space="preserve">Volume</text>
  </a>
  <a
     xlink:href="../api_docs/cloud/resources.html#keypair"
     target="_parent"
     id="svg_41">
    <path
       style="fill:#b6d7a8;fill-rule:nonzero;stroke:#000000"
       inkscape:connector-curvature="0"
       id="svg_99"
       d="m 554.79394,368.90079 0,0 c 0,-3.11655 2.52649,-5.64304 5.64307,-5.64304 l 156.99738,0 c 1.49664,0 2.93194,0.59454 3.99023,1.6528 1.05829,1.05829 1.65283,2.49362 1.65283,3.99024 l 0,22.5722 c 0,3.11655 -2.52649,5.64304 -5.64306,5.64304 l -156.99738,0 0,0 c -3.11658,0 -5.64307,-2.52649 -5.64307,-5.64304 l 0,-22.5722 z" />
    <text
       style="font-size:18.36630058px;font-family:Arial;text-anchor:middle;fill:#000000;stroke-width:0;stroke-dasharray:none"
       stroke-linejoin="null"
       stroke-linecap="null"
       x="638.93567"
       y="386.68689"
       id="e29_5"
       font-size="18.3663px"
       xml:space="preserve">KeyPair</text>
  </a>
  <a
     xlink:href="../api_docs/cloud/resources.html#placementzone"
     target="_parent"
     id="svg_42">
    <path
       style="fill:#b6d7a8;fill-rule:nonzero;stroke:#000000"
       inkscape:connector-curvature="0"
       id="svg_87"
       d="m 780.06561,254.5968 0,0 c 0,-3.11656 2.52649,-5.64303 5.64307,-5.64303 l 156.99737,0 c 1.49659,0 2.93195,0.59452 3.99024,1.6528 1.05829,1.05827 1.65277,2.4936 1.65277,3.99023 l 0,22.57218 c 0,3.11657 -2.52643,5.64303 -5.64301,5.64303 l -156.99737,0 0,0 c -3.11658,0 -5.64307,-2.52646 -5.64307,-5.64303 l 0,-22.57218 z" />
    <text
       style="font-size:18.36630058px;font-family:Arial;text-anchor:middle;fill:#000000;stroke-width:0;stroke-dasharray:none"
       stroke-linejoin="null"
       stroke-linecap="null"
       x="864.2074"
       y="272.3829"
       id="e35_5"
       font-size="18.3663px"
       xml:space="preserve">PlacementZone</text>
  </a>
  <a
     xlink:href="../api_docs/cloud/resources.html#region"
     target="_parent"
     id="svg_44">
    <path
       style="fill:#b6d7a8;fill-rule:nonzero;stroke:#000000"
       inkscape:connector-curvature="0"
       id="svg_64"
       d="m 554.79394,254.5968 0,0 c 0,-3.11656 2.52649,-5.64303 5.64307,-5.64303 l 156.99738,0 c 1.49664,0 2.93194,0.59452 3.99023,1.6528 1.05829,1.05827 1.65283,2.4936 1.65283,3.99023 l 0,22.57218 c 0,3.11657 -2.52649,5.64303 -5.64306,5.64303 l -156.99738,0 0,0 c -3.11658,0 -5.64307,-2.52646 -5.64307,-5.64303 l 0,-22.57218 z" />
    <text
       style="font-size:18.36630058px;font-family:Arial;text-anchor:middle;fill:#000000;stroke-width:0;stroke-dasharray:none"
       stroke-linejoin="null"
       stroke-linecap="null"
       x="641.70209"
       y="272.3829"
       id="e28_5"
       font-size="18.3663px"
       xml:space="preserve">Region</text>
  </a>
  <a
     xlink:href="../api_docs/cloud/resources.html#instance"
     target="_parent"
     id="svg_45">
    <path
       style="fill:#b6d7a8;fill-rule:nonzero;stroke:#000000"
       inkscape:connector-curvature="0"
       id="svg_11"
       d="m 554.79394,213.71393 0,0 c 0,-3.11658 2.52662,-5.64307 5.64307,-5.64307 l 156.99756,0 c 1.49658,0 2.93188,0.59454 3.99023,1.65283 1.05811,1.05829 1.65284,2.49359 1.65284,3.99024 l 0,22.5722 c 0,3.11652 -2.52662,5.64301 -5.64307,5.64301 l -156.99756,0 0,0 c -3.11645,0 -5.64307,-2.52649 -5.64307,-5.64301 l 0,-22.5722 z" />
    <text
       style="font-size:18.36630058px;font-family:Arial;text-anchor:middle;fill:#000000;stroke-width:0;stroke-dasharray:none"
       stroke-linejoin="null"
       stroke-linecap="null"
       x="638.93573"
       y="231.5"
       id="e27_5"
       font-size="18.3663px"
       xml:space="preserve">Instance</text>
  </a>
  <a
     xlink:href="../api_docs/cloud/resources.html#instancetype"
     target="_parent"
     id="svg_47">
    <path
       style="fill:#b6d7a8;fill-rule:nonzero;stroke:#000000"
       inkscape:connector-curvature="0"
       id="e24_46"
       d="m 554.79394,175.07382 0,0 c 0,-3.11658 2.52649,-5.64305 5.64307,-5.64305 l 156.99738,0 c 1.49664,0 2.93194,0.59453 3.99023,1.65282 1.05829,1.05827 1.65283,2.4936 1.65283,3.99023 l 0,22.57218 c 0,3.11656 -2.52649,5.64303 -5.64306,5.64303 l -156.99738,0 0,0 c -3.11658,0 -5.64307,-2.52647 -5.64307,-5.64303 l 0,-22.57218 z" />
    <text
       style="font-size:18.36630058px;font-family:Arial;text-anchor:middle;fill:#000000;stroke-width:0;stroke-dasharray:none"
       stroke-linejoin="null"
       stroke-linecap="null"
       x="638.93573"
       y="192.85989"
       id="e26_5"
       font-size="18.3663px"
       xml:space="preserve">InstanceType</text>
  </a>
  <a
     xlink:href="../api_docs/cloud/resources.html#machineimage"
     target="_parent"
     id="svg_49">
    <path
       style="fill:#b6d7a8;fill-rule:nonzero;stroke:#000000"
       inkscape:connector-curvature="0"
       id="svg_2"
       d="m 554.79394,134.21393 0,0 c 0,-3.11658 2.52649,-5.64307 5.64307,-5.64307 l 156.99744,0 c 1.49658,0 2.93188,0.59454 3.99023,1.65283 1.05823,1.05829 1.65283,2.49359 1.65283,3.99024 l 0,22.5722 c 0,3.11652 -2.52661,5.64301 -5.64306,5.64301 l -156.99744,0 0,0 c -3.11658,0 -5.64307,-2.52649 -5.64307,-5.64301 l 0,-22.5722 z" />
    <text
       style="font-size:18.36630058px;font-family:Arial;text-anchor:middle;fill:#000000;stroke-width:0;stroke-dasharray:none"
       stroke-linejoin="null"
       stroke-linecap="null"
       x="638.93567"
       y="152"
       id="e25_5"
       font-size="18.3663px"
       xml:space="preserve">MachineImage</text>
  </a>
  <g
     id="g3928">
    <path
       inkscape:connector-curvature="0"
       inkscape:connector-type="polyline"
       id="path3922"
       d="m 110.58764,56.971036 0.29053,32.887395"
       style="fill:none;fill-rule:evenodd;stroke:#000000;stroke-width:0.87083822px;stroke-linecap:butt;stroke-linejoin:miter;stroke-opacity:1" />
    <path
       inkscape:connector-curvature="0"
       inkscape:connector-type="polyline"
       id="path3924"
       d="m 111.32091,89.36032 47.37015,-0.578909"
       style="fill:none;fill-rule:evenodd;stroke:#000000;stroke-width:0.9233886px;stroke-linecap:butt;stroke-linejoin:miter;stroke-opacity:1" />
  </g>
  <path
     style="fill:none;fill-rule:evenodd;stroke:#000000;stroke-width:0.74689049px;stroke-linecap:butt;stroke-linejoin:miter;stroke-opacity:1"
     d="m 255.32613,146.14078 30.56608,-0.58697"
     id="path3924-6"
     inkscape:connector-type="polyline"
     inkscape:connector-curvature="0" />
  <path
     style="fill:none;fill-rule:evenodd;stroke:#000000;stroke-width:0.74689049px;stroke-linecap:butt;stroke-linejoin:miter;stroke-opacity:1"
     d="m 255.33095,185.98568 30.56608,-0.58697"
     id="path3924-6-7"
     inkscape:connector-type="polyline"
     inkscape:connector-curvature="0" />
  <path
     style="fill:none;fill-rule:evenodd;stroke:#000000;stroke-width:0.74689049px;stroke-linecap:butt;stroke-linejoin:miter;stroke-opacity:1"
     d="m 255.33095,227.08175 30.56608,-0.58697"
     id="path3924-6-1"
     inkscape:connector-type="polyline"
     inkscape:connector-curvature="0" />
  <path
     style="fill:none;fill-rule:evenodd;stroke:#000000;stroke-width:0.74689049px;stroke-linecap:butt;stroke-linejoin:miter;stroke-opacity:1"
     d="m 255.33095,266.17637 30.56608,-0.58697"
     id="path3924-6-8"
     inkscape:connector-type="polyline"
     inkscape:connector-curvature="0" />
  <path
     style="fill:none;fill-rule:evenodd;stroke:#000000;stroke-width:1.06641829px;stroke-linecap:butt;stroke-linejoin:miter;stroke-opacity:1"
     d="m 255.72098,115.6027 0.0949,150.88626"
     id="path3922-6"
     inkscape:connector-type="polyline"
     inkscape:connector-curvature="0" />
  <path
     style="fill:none;fill-rule:evenodd;stroke:#000000;stroke-width:0.73478723px;stroke-linecap:butt;stroke-linejoin:miter;stroke-opacity:1"
     d="m 256.91071,379.81957 28.9859,-0.59907"
     id="path3924-6-4"
     inkscape:connector-type="polyline"
     inkscape:connector-curvature="0" />
  <path
     style="fill:none;fill-rule:evenodd;stroke:#000000;stroke-width:0.73930079px;stroke-linecap:butt;stroke-linejoin:miter;stroke-opacity:1"
     d="m 256.33097,421.91295 29.5658,-0.59455"
     id="path3924-6-7-8"
     inkscape:connector-type="polyline"
     inkscape:connector-curvature="0" />
  <path
     style="fill:none;fill-rule:evenodd;stroke:#000000;stroke-width:0.99340224px;stroke-linecap:butt;stroke-linejoin:miter;stroke-opacity:1"
     d="m 256.82024,348.2836 0.16792,73.9978"
     id="path3922-6-4"
     inkscape:connector-type="polyline"
     inkscape:connector-curvature="0" />
  <path
     style="fill:none;fill-rule:evenodd;stroke:#000000;stroke-width:0.73478723px;stroke-linecap:butt;stroke-linejoin:miter;stroke-opacity:1"
     d="m 256.91071,542.06884 28.9859,-0.59907"
     id="path3924-6-4-8"
     inkscape:connector-type="polyline"
     inkscape:connector-curvature="0" />
  <path
     style="fill:none;fill-rule:evenodd;stroke:#000000;stroke-width:0.73930079px;stroke-linecap:butt;stroke-linejoin:miter;stroke-opacity:1"
     d="m 256.33097,584.16222 29.5658,-0.59455"
     id="path3924-6-7-8-2"
     inkscape:connector-type="polyline"
     inkscape:connector-curvature="0" />
  <path
     style="fill:none;fill-rule:evenodd;stroke:#000000;stroke-width:0.99340224px;stroke-linecap:butt;stroke-linejoin:miter;stroke-opacity:1"
     d="m 256.82024,510.53287 0.16792,73.9978"
     id="path3922-6-4-3"
     inkscape:connector-type="polyline"
     inkscape:connector-curvature="0" />
</svg>
